<?xml version="1.0" standalone="no"?>
<!DOCTYPE svg PUBLIC "-//W3C//DTD SVG 20010904//EN"
 "http://www.w3.org/TR/2001/REC-SVG-20010904/DTD/svg10.dtd">
<svg version="1.0" xmlns="http://www.w3.org/2000/svg"
 width="3000.000000pt" height="3000.000000pt" viewBox="0 0 3000.000000 3000.000000"
 preserveAspectRatio="xMidYMid meet">

<g transform="translate(0.000000,3000.000000) scale(0.100000,-0.100000)"
fill="#000000" stroke="none">
<path d="M14590 26520 c-25 -5 -151 -9 -280 -9 -221 -1 -338 -8 -506 -32 -39
-5 -130 -12 -200 -14 -71 -2 -186 -10 -254 -18 -69 -9 -145 -15 -170 -15 -25
0 -70 -10 -101 -21 -57 -22 -245 -54 -414 -71 -49 -5 -112 -16 -140 -24 -155
-45 -198 -56 -280 -70 -49 -8 -121 -18 -160 -21 -40 -3 -95 -17 -130 -32 -115
-49 -167 -64 -269 -78 -77 -11 -123 -24 -186 -53 -47 -22 -122 -47 -168 -56
-46 -9 -103 -26 -128 -36 -24 -11 -65 -29 -90 -40 -26 -12 -90 -30 -142 -41
-67 -13 -119 -32 -171 -60 -49 -26 -103 -46 -151 -55 -55 -11 -89 -24 -128
-51 -30 -20 -88 -46 -130 -59 -42 -12 -119 -43 -171 -68 -52 -25 -105 -46
-118 -46 -35 0 -83 -24 -128 -64 -39 -35 -87 -56 -131 -56 -21 0 -88 -43 -112
-73 -15 -17 -54 -31 -115 -42 -24 -4 -55 -21 -87 -50 -28 -25 -63 -47 -78 -50
-77 -16 -107 -30 -153 -70 -27 -25 -57 -45 -67 -45 -28 -1 -94 -35 -139 -73
-24 -19 -67 -43 -95 -53 -29 -9 -70 -32 -90 -50 -21 -18 -61 -45 -90 -60 -29
-15 -73 -44 -97 -65 -24 -22 -60 -43 -80 -49 -20 -5 -58 -29 -86 -53 -27 -24
-69 -54 -93 -66 -24 -12 -60 -37 -80 -55 -20 -18 -59 -43 -87 -55 -27 -12 -66
-37 -85 -55 -19 -18 -57 -46 -85 -62 -27 -15 -71 -46 -96 -68 -117 -103 -158
-135 -194 -150 -21 -9 -62 -39 -91 -66 -29 -28 -58 -50 -63 -50 -6 0 -38 -26
-70 -57 -32 -32 -94 -87 -136 -123 -43 -36 -127 -110 -185 -165 -59 -55 -180
-165 -269 -245 -148 -132 -449 -431 -532 -528 -19 -22 -78 -91 -132 -153 -54
-63 -126 -148 -160 -188 -34 -41 -80 -94 -102 -116 -60 -63 -142 -167 -275
-350 -19 -27 -49 -65 -66 -84 -17 -20 -47 -61 -66 -92 -20 -31 -47 -65 -61
-76 -14 -11 -40 -44 -57 -74 -18 -30 -42 -65 -55 -79 -13 -14 -32 -45 -43 -70
-11 -25 -42 -68 -69 -96 -33 -33 -56 -69 -67 -100 -9 -27 -32 -69 -51 -93 -19
-24 -35 -47 -35 -51 0 -4 -29 -46 -64 -93 -37 -51 -68 -103 -74 -129 -7 -26
-24 -55 -43 -73 -17 -17 -48 -64 -69 -107 -21 -42 -49 -91 -62 -110 -14 -18
-33 -53 -42 -78 -10 -24 -37 -74 -61 -110 -23 -36 -48 -83 -55 -105 -7 -22
-33 -71 -57 -108 -24 -38 -48 -90 -54 -117 -7 -32 -28 -73 -59 -115 -31 -42
-51 -81 -55 -107 -9 -53 -39 -124 -70 -164 -13 -18 -37 -72 -53 -122 -17 -52
-42 -106 -60 -128 -21 -26 -38 -65 -50 -114 -11 -42 -24 -84 -30 -95 -31 -55
-71 -158 -87 -223 -9 -40 -29 -89 -43 -110 -37 -55 -52 -96 -68 -190 -18 -98
-34 -142 -68 -183 -31 -36 -43 -76 -50 -167 -6 -73 -30 -158 -66 -236 -11 -22
-29 -86 -40 -141 -26 -128 -43 -147 -149 -170 -42 -9 -113 -35 -158 -56 -150
-73 -242 -76 -334 -13 -82 57 -99 60 -166 29 -32 -14 -78 -29 -103 -32 -77
-10 -191 -42 -225 -63 -38 -23 -57 -50 -74 -101 -19 -60 -74 -115 -134 -135
-28 -9 -74 -28 -102 -41 -37 -17 -68 -23 -119 -23 -65 0 -72 2 -121 39 -28 21
-84 51 -125 65 -73 27 -74 27 -144 12 -39 -9 -89 -18 -110 -22 -51 -7 -90 -49
-105 -111 -10 -40 -26 -60 -99 -130 -67 -63 -97 -86 -131 -95 -26 -6 -63 -28
-92 -54 -26 -23 -75 -57 -109 -75 -34 -18 -83 -56 -111 -87 -48 -52 -50 -58
-45 -96 18 -116 18 -123 -2 -163 -11 -22 -28 -45 -37 -53 -23 -19 -52 -78 -60
-123 -13 -66 2 -104 63 -166 133 -136 195 -226 228 -333 16 -53 55 -90 145
-138 118 -63 234 -201 257 -307 5 -23 30 -79 55 -125 24 -46 48 -99 52 -118 8
-39 43 -107 80 -158 13 -18 28 -54 34 -80 6 -26 17 -68 25 -93 18 -58 7 -77
-60 -111 -25 -12 -52 -34 -59 -48 -7 -15 -15 -79 -18 -155 -5 -148 -12 -172
-67 -232 -32 -34 -40 -50 -40 -80 0 -32 8 -44 63 -95 34 -33 71 -61 82 -63 11
-2 95 -6 186 -8 187 -5 209 -12 230 -74 20 -62 7 -119 -40 -167 -28 -28 -41
-51 -41 -69 0 -31 31 -97 54 -116 9 -7 25 -28 36 -47 39 -62 1 -88 -146 -98
-45 -3 -99 -12 -120 -20 -125 -46 -258 -79 -349 -87 -133 -11 -150 -15 -220
-53 -33 -18 -91 -41 -130 -51 -97 -25 -110 -33 -196 -122 -70 -73 -78 -85
-112 -181 -35 -97 -37 -111 -37 -221 0 -90 5 -131 19 -173 10 -30 24 -104 31
-164 7 -74 20 -129 37 -169 39 -93 71 -188 78 -239 11 -71 119 -200 204 -242
34 -18 72 -41 84 -52 31 -29 63 -39 143 -47 85 -8 152 -29 224 -69 47 -26 65
-31 125 -31 53 0 80 5 113 23 76 39 131 22 166 -53 20 -40 15 -65 -20 -112
-43 -57 -85 -82 -169 -98 -47 -9 -94 -25 -117 -40 -58 -39 -129 -63 -211 -74
-41 -5 -88 -16 -103 -25 -16 -8 -54 -27 -84 -41 -30 -15 -66 -32 -78 -38 -34
-16 -55 -63 -49 -106 3 -20 23 -74 45 -121 34 -70 45 -108 62 -220 11 -74 27
-155 34 -180 8 -25 17 -58 21 -75 3 -16 17 -58 31 -92 15 -39 24 -82 24 -117
0 -69 14 -101 51 -117 33 -13 75 -1 105 32 29 32 55 23 110 -36 49 -53 53 -55
101 -55 27 0 75 9 105 19 43 15 99 21 235 26 190 8 214 4 255 -41 33 -38 78
-257 78 -385 0 -66 -3 -78 -22 -96 -36 -32 -44 -35 -141 -43 -88 -8 -170 -34
-262 -84 -16 -9 -46 -19 -65 -22 -25 -5 -55 -28 -114 -86 -67 -68 -81 -88 -92
-131 -7 -29 -25 -86 -39 -127 -38 -108 -42 -171 -16 -245 42 -114 61 -200 68
-300 6 -88 10 -107 43 -170 20 -38 40 -84 43 -101 11 -58 59 -143 101 -180 22
-20 60 -54 83 -75 55 -50 91 -67 159 -80 30 -6 99 -30 152 -54 131 -59 232
-73 416 -56 99 10 149 20 206 42 41 16 83 29 92 29 32 0 41 -37 34 -138 -6
-93 -6 -94 26 -145 64 -104 42 -232 -58 -323 -36 -33 -44 -47 -44 -76 0 -55
28 -73 106 -70 62 3 66 2 92 -28 74 -87 67 -83 145 -76 98 9 129 -3 203 -75
l64 -61 53 7 c67 9 82 18 137 74 32 34 65 55 116 75 l72 28 72 -22 c39 -12
111 -25 160 -29 87 -8 89 -8 140 -54 57 -52 98 -67 181 -67 74 0 143 22 191
60 22 18 67 43 100 56 34 13 83 42 110 64 26 23 73 49 104 59 30 11 68 30 82
44 64 59 108 67 239 42 103 -20 391 -20 493 -1 93 18 270 31 304 22 13 -3 48
-27 78 -52 67 -58 105 -73 173 -73 52 1 59 -2 140 -62 47 -35 85 -66 85 -70 0
-9 346 -323 485 -440 22 -19 45 -39 50 -45 6 -6 28 -24 50 -39 22 -16 61 -49
86 -74 25 -25 78 -73 118 -106 40 -33 98 -83 129 -111 31 -28 75 -61 97 -72
22 -11 49 -30 60 -42 11 -12 40 -34 65 -48 25 -14 73 -52 108 -84 34 -32 69
-58 76 -58 7 0 33 -18 58 -39 25 -22 69 -51 99 -64 30 -13 68 -39 84 -57 17
-17 53 -43 80 -57 28 -14 68 -41 91 -59 22 -19 58 -41 80 -50 21 -9 59 -35 85
-59 26 -24 66 -49 96 -59 27 -9 68 -32 90 -51 22 -19 66 -45 98 -60 32 -14 78
-42 102 -61 25 -20 68 -45 96 -56 28 -11 70 -37 93 -58 38 -35 69 -49 146 -65
15 -3 50 -25 78 -50 32 -29 63 -46 87 -50 67 -11 99 -25 124 -51 38 -40 80
-61 138 -69 43 -6 62 -15 95 -45 48 -44 96 -70 129 -70 13 0 66 -21 118 -46
52 -25 126 -55 164 -66 39 -10 97 -37 130 -58 54 -35 152 -70 196 -70 9 0 54
-20 100 -44 58 -30 107 -47 159 -56 48 -8 108 -28 165 -55 63 -30 118 -48 180
-58 66 -11 117 -28 183 -61 63 -30 112 -47 150 -51 159 -16 202 -27 263 -68
60 -40 61 -41 187 -48 95 -5 147 -14 205 -33 43 -14 93 -26 111 -26 19 0 58
-11 87 -24 40 -18 80 -26 154 -31 163 -10 249 -24 347 -56 56 -18 133 -33 198
-39 58 -6 143 -15 190 -20 47 -5 141 -9 210 -10 79 0 147 -6 185 -16 46 -12
154 -18 455 -26 459 -11 401 -11 875 0 274 7 388 13 440 25 41 9 148 18 260
22 105 4 210 12 235 17 25 6 79 11 120 13 52 1 90 9 122 24 52 24 248 57 418
71 68 5 125 16 160 30 53 22 121 40 225 62 28 5 100 13 161 17 105 8 116 11
185 48 74 40 133 55 269 68 48 5 87 18 151 50 62 31 114 49 181 61 61 11 123
31 183 59 58 27 122 48 179 59 62 11 109 27 160 55 39 21 91 42 116 46 62 10
119 31 160 60 19 13 77 38 128 54 52 17 132 51 180 76 47 25 96 45 109 45 36
0 83 23 131 63 25 21 59 39 80 42 67 12 102 26 150 62 25 20 71 44 102 53 71
22 109 42 138 73 26 27 52 40 120 57 25 7 62 29 92 55 28 25 60 45 71 45 35 0
84 26 136 73 36 31 64 47 93 52 27 5 57 21 88 48 26 22 72 52 102 65 30 14 72
40 92 58 20 18 56 39 79 46 26 7 65 33 100 65 31 29 72 59 90 67 19 8 50 29
69 46 19 18 58 42 86 55 27 12 74 43 102 69 29 25 56 46 61 46 5 0 36 25 70
55 34 30 78 64 99 74 20 10 48 31 62 46 14 15 43 35 64 46 21 10 64 41 95 69
207 188 303 270 332 286 42 21 118 87 268 229 63 61 144 137 179 170 108 99
259 252 408 410 143 151 195 210 358 404 49 58 92 108 95 111 15 11 149 178
180 223 18 26 41 53 53 60 11 7 37 41 58 77 21 36 48 74 60 85 12 11 31 38 42
59 11 21 40 59 65 84 24 25 53 63 64 85 11 21 37 58 58 80 21 23 44 58 51 77
8 19 29 51 46 70 17 19 50 67 74 105 23 39 52 81 65 95 12 14 30 49 40 79 12
36 32 68 65 101 32 32 53 65 65 100 9 28 30 66 45 84 16 17 40 58 54 91 15 32
43 78 62 102 20 24 43 65 50 91 8 25 35 72 60 105 26 32 52 79 60 104 7 25 32
72 54 105 39 58 60 112 60 154 0 12 24 51 54 87 44 54 54 74 60 118 5 40 20
71 57 127 27 40 49 82 49 93 0 34 39 132 69 175 29 42 55 110 67 177 3 20 19
54 34 76 42 58 56 90 68 156 9 56 33 114 83 206 10 20 23 70 29 111 9 71 33
138 79 216 11 19 25 66 31 105 34 213 58 250 175 272 22 3 67 20 100 36 33 16
68 29 78 29 10 0 28 5 40 12 12 6 58 22 102 34 44 12 94 27 111 35 28 11 41 9
115 -16 108 -36 204 -42 336 -21 110 18 232 61 265 94 12 11 33 56 47 99 33
97 54 113 184 137 135 26 295 20 334 -12 15 -12 46 -36 68 -53 l40 -31 100 7
c121 8 145 20 194 96 125 196 156 232 211 244 16 3 49 24 73 45 24 22 69 48
99 60 30 11 69 36 89 56 18 20 55 46 81 60 59 30 84 62 92 118 8 54 34 89 78
106 41 17 68 39 68 57 0 23 -148 156 -200 180 -69 30 -75 46 -59 159 16 122 4
148 -133 285 -48 48 -58 63 -58 92 0 80 42 127 113 127 44 0 110 28 159 68 22
17 75 41 125 57 77 24 94 34 150 87 35 34 63 69 63 79 0 9 -11 41 -25 71 -19
40 -25 70 -25 123 0 39 -5 110 -11 159 -10 82 -15 94 -66 175 -60 93 -141 184
-187 208 -15 8 -47 20 -71 28 -24 7 -58 24 -77 38 -44 34 -75 45 -161 58 -40
6 -103 23 -142 38 -38 16 -86 31 -106 35 -40 7 -72 36 -89 81 -13 35 9 177 46
293 14 42 32 146 44 250 12 97 23 197 26 221 7 55 44 95 99 105 46 9 136 48
177 77 15 11 62 26 105 35 49 9 94 25 123 44 52 33 150 70 187 70 29 0 83 50
83 77 0 10 -18 70 -40 133 -30 85 -43 141 -50 215 -9 101 -15 127 -49 200 -26
56 -36 103 -67 323 -3 18 -17 46 -32 62 -26 28 -29 29 -72 19 -81 -19 -124 -8
-184 49 -78 74 -130 78 -210 17 -21 -16 -46 -25 -68 -25 -20 0 -71 -9 -114
-20 -44 -11 -102 -20 -131 -20 -29 0 -75 -5 -103 -11 -80 -17 -132 1 -194 70
-136 149 -335 338 -423 401 -23 16 -49 40 -58 53 -8 13 -34 34 -57 47 -24 12
-64 40 -90 62 -26 21 -70 45 -96 53 -56 17 -180 101 -205 139 -12 18 -17 48
-17 108 -1 97 -19 223 -51 360 -22 93 -22 99 -6 130 14 28 58 109 134 252 12
22 14 49 11 116 -4 70 -2 97 12 127 9 21 27 69 40 107 22 68 22 68 3 95 -11
14 -37 32 -59 39 -21 7 -47 21 -57 30 -24 21 -67 117 -67 148 0 33 124 129
214 167 118 49 182 124 173 204 -6 57 -24 82 -104 146 -42 33 -82 77 -103 112
-74 120 -73 119 -134 140 -107 37 -135 87 -134 242 0 50 -7 127 -16 170 -26
134 -46 303 -48 423 l-3 115 42 70 c23 39 63 95 88 124 26 30 51 66 56 79 14
35 11 85 -7 127 -14 35 -14 43 1 99 10 34 21 115 25 181 4 66 13 133 19 148
23 59 16 75 -71 156 -158 145 -166 155 -178 203 -14 56 -49 91 -87 90 -16 0
-53 -14 -83 -31 -75 -42 -114 -41 -163 4 -21 19 -53 42 -70 51 -18 9 -49 32
-70 50 -20 19 -42 34 -47 34 -5 0 -27 -15 -47 -33 -21 -18 -57 -45 -80 -60
-23 -15 -52 -40 -64 -56 -33 -45 -67 -55 -167 -47 -169 12 -191 18 -334 91
l-138 69 -91 -18 c-116 -24 -186 -49 -218 -80 -14 -14 -57 -39 -95 -56 -38
-17 -89 -48 -112 -70 -25 -23 -60 -43 -86 -50 -23 -6 -71 -21 -106 -32 -62
-22 -63 -22 -130 -3 -53 14 -113 19 -297 23 l-230 4 -70 -37 c-122 -66 -210
-51 -283 45 -82 109 -415 451 -652 670 -68 63 -152 143 -186 178 -35 34 -68
62 -74 62 -6 0 -32 19 -58 43 -26 24 -60 51 -76 61 -16 10 -83 68 -148 127
-65 60 -122 109 -127 109 -4 0 -31 22 -58 49 -27 27 -67 58 -89 69 -21 11 -50
32 -64 47 -13 14 -47 39 -75 55 -27 16 -63 43 -80 60 -16 18 -52 43 -78 57
-27 13 -68 42 -91 64 -24 21 -63 46 -87 54 -24 9 -62 33 -84 54 -22 21 -62 50
-88 65 -26 15 -63 40 -81 56 -18 16 -55 39 -81 50 -27 11 -66 36 -87 55 -21
19 -60 46 -87 59 -27 13 -70 40 -94 60 -24 20 -66 43 -93 51 -28 8 -73 35
-104 60 -48 39 -101 65 -135 65 -6 0 -28 16 -50 36 -59 52 -75 61 -133 73 -37
8 -68 24 -106 55 -35 28 -71 48 -105 56 -32 7 -68 26 -94 48 -50 42 -85 58
-151 67 -38 6 -60 17 -91 46 -45 42 -100 69 -138 69 -13 0 -62 20 -109 45 -48
25 -128 59 -180 75 -51 17 -104 39 -118 49 -47 34 -87 50 -153 61 -47 9 -83
23 -128 52 -49 32 -78 43 -148 55 -47 8 -106 26 -131 39 -63 34 -121 52 -230
75 -59 12 -127 35 -180 61 -62 30 -104 43 -160 50 -155 19 -217 35 -270 72
-57 39 -71 43 -215 51 -73 4 -125 13 -190 35 -165 54 -228 70 -282 70 -30 0
-89 8 -131 17 -42 10 -100 16 -129 15 -35 -2 -79 7 -140 28 -59 19 -127 33
-199 40 -60 5 -140 14 -179 20 -38 5 -133 10 -210 10 -94 0 -160 5 -200 16
-46 12 -147 18 -440 25 -209 4 -407 10 -440 13 -33 2 -80 1 -105 -4z m635
-1110 c171 1 237 -2 295 -15 41 -9 138 -19 215 -22 118 -5 149 -9 200 -30 49
-21 85 -27 205 -33 80 -5 161 -13 180 -19 19 -6 54 -11 78 -11 61 0 265 -46
314 -71 31 -16 76 -25 173 -33 77 -7 142 -18 160 -28 17 -9 49 -19 73 -23 23
-4 42 -11 42 -16 0 -5 -5 -9 -12 -9 -19 0 -162 -152 -187 -200 -59 -111 -80
-157 -86 -187 -3 -18 -10 -45 -16 -60 -24 -60 1 -309 32 -329 5 -3 6 -10 3
-16 -4 -6 -2 -13 4 -17 7 -4 13 -16 15 -26 2 -11 8 -29 14 -40 9 -18 35 -119
47 -185 14 -76 27 -107 60 -144 14 -16 26 -32 26 -35 0 -4 8 -11 19 -16 10 -6
33 -18 51 -29 47 -26 161 -25 232 3 82 31 195 133 262 235 43 65 146 267 146
286 0 7 6 26 14 43 8 18 20 59 27 92 7 33 14 67 16 75 20 85 26 295 9 332 -7
14 -2 16 36 11 24 -3 55 -12 70 -19 15 -8 58 -21 95 -29 37 -8 100 -31 138
-50 39 -20 115 -47 169 -60 55 -14 116 -35 135 -48 20 -13 145 -60 277 -106
235 -81 242 -84 290 -132 26 -27 64 -54 83 -60 19 -7 61 -29 94 -50 33 -22 79
-44 101 -50 73 -18 96 -31 131 -72 44 -51 68 -68 116 -78 21 -5 59 -22 86 -39
26 -16 53 -30 60 -30 24 0 71 -29 122 -74 32 -29 61 -45 87 -49 27 -4 58 -22
98 -57 33 -27 81 -57 106 -65 26 -9 60 -29 76 -46 16 -17 52 -42 79 -56 28
-14 69 -43 93 -65 24 -22 67 -50 95 -63 29 -12 63 -35 77 -50 14 -15 43 -36
65 -47 22 -11 60 -39 85 -62 25 -24 66 -55 92 -69 25 -15 55 -38 66 -51 10
-14 43 -39 72 -56 68 -40 159 -117 329 -277 147 -138 178 -166 202 -178 38
-20 139 -143 139 -169 0 -12 -5 -27 -11 -33 -12 -12 -10 -14 96 -77 33 -20 54
-36 46 -36 -22 0 -1178 -119 -1266 -131 -44 -5 -152 -17 -240 -25 -237 -21
-740 -73 -815 -84 -36 -6 -80 -13 -99 -16 l-35 -6 25 28 c13 15 43 47 67 72
23 25 42 46 42 49 0 4 15 23 40 51 8 10 26 33 40 52 25 35 36 50 55 73 6 7 22
30 35 52 13 22 36 56 51 75 86 113 139 245 140 353 1 82 -32 207 -53 207 -5 0
-8 4 -8 10 0 9 -27 36 -75 78 -8 6 -21 12 -29 12 -8 0 -16 4 -18 10 -1 5 -25
12 -53 15 -49 5 -135 17 -145 20 -26 8 -48 21 -62 36 -26 27 -58 87 -58 109 0
11 -4 20 -9 20 -5 0 -13 14 -16 32 -4 18 -11 39 -16 48 -5 8 -18 38 -30 65
-44 103 -78 172 -121 245 -24 41 -50 88 -58 104 -33 65 -165 172 -235 191 -51
14 -58 15 -126 16 -52 1 -83 -6 -145 -31 -43 -17 -90 -42 -105 -56 -14 -13
-29 -24 -35 -25 -9 0 -94 -112 -94 -124 0 -4 -8 -19 -18 -33 -11 -15 -31 -67
-47 -117 -31 -101 -44 -136 -83 -215 -37 -75 -227 -396 -243 -410 -3 -3 -9
-12 -13 -20 -11 -23 -29 -54 -61 -101 -38 -58 -63 -99 -115 -188 -67 -113 -65
-111 -132 -100 -31 5 -72 18 -90 28 -51 30 -135 61 -220 82 -42 10 -120 37
-175 60 -134 56 -162 64 -283 79 -94 12 -110 17 -151 48 -54 40 -54 37 -9 167
27 78 60 192 76 260 2 11 9 56 15 100 6 44 14 87 18 95 21 40 0 391 -28 488
-5 18 -9 34 -8 36 3 6 -68 151 -75 154 -5 2 -8 8 -8 14 0 11 -60 71 -82 82 -7
3 -27 15 -44 25 -29 17 -72 31 -119 37 -43 5 -143 -19 -198 -48 -125 -67 -250
-224 -426 -538 -17 -30 -65 -125 -107 -210 -42 -85 -81 -158 -86 -161 -5 -3
-9 -9 -8 -13 0 -3 -9 -28 -20 -54 -12 -26 -31 -69 -42 -97 -12 -27 -25 -54
-29 -60 -3 -5 -10 -25 -14 -42 -8 -38 -9 -38 -119 -18 -131 24 -307 38 -403
33 -49 -3 -111 -2 -137 2 -26 4 -169 3 -319 -1 -241 -7 -284 -11 -377 -33 -80
-20 -132 -26 -220 -26 -81 0 -137 -6 -190 -20 -41 -11 -108 -20 -148 -20 -90
0 -280 -32 -382 -64 -106 -33 -160 -44 -277 -55 -74 -7 -119 -17 -159 -35 -31
-14 -71 -26 -90 -26 -18 0 -53 -6 -76 -14 -24 -8 -70 -22 -104 -30 -33 -9
-100 -34 -148 -56 -51 -24 -129 -49 -182 -60 -52 -11 -104 -26 -117 -34 -37
-24 -148 -64 -212 -77 -68 -13 -85 -21 -135 -60 -20 -16 -72 -39 -122 -53 -48
-14 -123 -46 -166 -71 -44 -25 -88 -45 -98 -45 -29 -1 -95 -33 -147 -73 -26
-20 -64 -39 -85 -43 -46 -8 -85 -27 -140 -70 -24 -18 -60 -38 -80 -45 -19 -6
-62 -31 -94 -55 -32 -23 -82 -50 -111 -60 -28 -9 -71 -34 -95 -55 -24 -21 -65
-45 -92 -54 -27 -9 -60 -25 -73 -35 l-23 -19 19 57 c10 31 21 66 23 77 2 11
10 53 17 93 13 68 14 159 2 210 -3 12 -7 31 -9 41 -16 72 -122 219 -161 225
-9 1 -20 7 -23 13 -4 5 -20 13 -37 18 -47 11 -175 15 -175 4 0 -5 -11 -9 -24
-9 -14 0 -31 -7 -40 -15 -8 -8 -19 -15 -25 -15 -5 0 -26 -15 -45 -32 -73 -69
-128 -146 -182 -255 -30 -62 -60 -113 -65 -113 -5 0 -9 -6 -9 -14 0 -17 -47
-56 -67 -56 -20 0 -62 48 -87 100 -28 57 -106 180 -115 180 -4 0 -15 13 -24
30 -10 16 -21 29 -25 27 -4 -1 -28 14 -52 33 -175 137 -422 159 -715 66 -44
-14 -88 -26 -97 -26 -10 0 -18 -4 -18 -9 0 -5 -13 -11 -29 -14 -15 -3 -58 -20
-95 -36 -37 -17 -69 -31 -73 -31 -3 0 -27 -10 -52 -21 -25 -12 -68 -32 -96
-44 -92 -42 -290 -140 -295 -146 -3 -3 -24 -16 -47 -28 -82 -41 -119 -62 -238
-137 -66 -41 -128 -78 -137 -81 -10 -3 -18 -8 -18 -12 0 -4 -16 -15 -35 -24
-19 -9 -35 -21 -35 -26 0 -6 -10 -16 -22 -22 -22 -12 -22 -11 -8 7 8 10 24 30
35 44 26 32 381 398 499 514 50 48 120 112 156 141 36 29 102 89 148 134 46
45 95 90 111 99 28 17 81 61 191 159 32 28 71 58 87 66 15 9 44 32 63 52 19
20 55 47 80 60 25 13 59 37 75 55 17 17 43 38 58 46 15 8 52 37 81 63 30 27
67 52 83 55 16 4 51 24 78 46 28 22 75 52 105 67 30 14 74 43 97 63 24 21 69
47 101 58 58 22 145 82 231 161 30 28 64 46 110 60 49 15 76 30 106 61 26 27
55 45 83 52 26 6 68 31 108 64 48 40 74 54 97 54 44 1 105 30 150 73 24 23 51
38 75 42 49 8 108 33 158 67 23 15 73 34 112 43 46 11 85 27 113 48 23 18 49
38 58 44 9 7 49 19 88 26 51 10 87 24 125 50 53 36 125 67 158 67 31 0 130 37
168 63 21 15 58 33 82 40 25 8 80 34 122 60 69 41 94 49 250 82 95 20 211 47
258 60 47 13 110 27 140 30 77 9 164 32 208 55 56 29 174 52 354 70 54 5 120
19 150 31 110 45 175 54 533 78 94 7 142 15 175 29 30 14 86 24 170 32 69 6
163 17 210 25 130 23 133 23 655 18 270 -2 589 -3 710 -3z m2404 -340 c89 -51
121 -159 103 -344 -26 -272 -115 -511 -257 -696 -57 -74 -132 -124 -222 -149
-87 -23 -129 -16 -167 30 -41 48 -39 81 14 215 38 99 38 99 17 108 -46 19 -98
60 -118 93 -27 43 -49 125 -49 183 0 55 31 188 59 252 48 113 139 222 226 273
111 66 308 83 394 35z m-1158 -592 c105 -59 162 -252 163 -548 1 -165 -8 -234
-55 -421 -77 -310 -242 -684 -510 -1155 -76 -134 -81 -159 -53 -254 23 -76 77
-130 131 -130 107 0 297 185 501 486 86 126 101 139 167 139 52 0 57 -3 105
-50 27 -27 50 -46 50 -42 0 4 -14 36 -31 72 -17 36 -27 70 -23 76 3 6 22 17
41 25 46 20 98 9 146 -28 51 -40 91 -55 170 -63 54 -6 80 -15 130 -47 62 -39
167 -91 172 -86 1 2 10 27 19 56 20 59 88 173 464 779 l262 421 0 64 c0 113
40 217 107 284 76 74 219 117 319 96 99 -20 115 -41 257 -324 143 -285 175
-379 184 -528 6 -101 -8 -198 -47 -322 -10 -33 -15 -57 -11 -52 5 5 70 91 144
191 120 160 141 183 174 192 83 23 133 -13 207 -150 58 -108 56 -129 -34 -280
-236 -394 -505 -690 -740 -814 -131 -68 -327 -103 -485 -86 -106 12 -243 50
-318 87 -61 31 -163 102 -195 136 -20 23 -26 24 -70 15 -69 -14 -127 5 -178
58 l-42 43 -11 -24 c-6 -14 -11 -31 -11 -38 0 -27 -28 -35 -160 -47 -74 -6
-150 -17 -167 -25 -29 -11 -33 -18 -33 -49 0 -56 -62 -62 -91 -9 -7 15 -30 37
-51 50 -32 20 -37 30 -45 76 l-8 53 -84 -150 c-171 -307 -281 -465 -426 -610
-120 -121 -219 -188 -332 -227 -147 -51 -279 -46 -397 14 -57 29 -171 142
-212 210 l-35 58 -46 -68 c-103 -151 -246 -317 -358 -414 -171 -149 -323 -230
-500 -264 -76 -15 -97 -16 -164 -5 -105 18 -166 43 -250 102 -79 55 -177 170
-219 256 -14 29 -29 53 -32 53 -3 0 -66 -91 -140 -203 l-135 -202 -6 -170
c-11 -273 -58 -456 -180 -695 -87 -169 -176 -295 -303 -427 -212 -221 -364
-294 -521 -248 -48 13 -70 28 -121 79 -52 53 -65 73 -84 132 -36 113 -37 218
-4 354 4 17 -3 10 -24 -22 -34 -52 -49 -58 -297 -123 -55 -15 -172 -46 -260
-70 -88 -24 -279 -76 -425 -115 -146 -39 -337 -91 -425 -115 -88 -24 -279 -76
-425 -115 -146 -39 -328 -89 -405 -110 -77 -21 -259 -71 -405 -110 -146 -39
-364 -98 -485 -131 -121 -33 -303 -83 -405 -110 -206 -56 -614 -173 -970 -277
-129 -38 -305 -90 -390 -115 -85 -25 -240 -71 -345 -102 -104 -31 -266 -79
-360 -106 -93 -28 -368 -109 -610 -180 -242 -72 -591 -175 -775 -229 -667
-196 -815 -241 -1033 -311 -122 -39 -294 -93 -382 -121 -88 -28 -182 -59 -210
-71 -27 -11 -212 -73 -410 -137 -934 -305 -1285 -422 -1285 -429 0 -4 32 -74
71 -156 38 -81 81 -180 94 -219 33 -98 31 -59 -6 115 -34 158 -33 189 5 214
27 18 1185 297 1331 321 343 56 612 -90 722 -394 33 -88 61 -218 69 -318 12
-144 -32 -296 -116 -403 l-39 -49 45 -12 c63 -18 152 -77 202 -136 153 -176
239 -592 173 -837 -55 -209 -189 -352 -419 -448 -72 -30 -177 -57 -777 -202
-553 -135 -618 -148 -646 -136 -15 6 -32 23 -38 37 -16 39 -101 437 -101 471
0 16 13 44 30 66 34 43 33 38 19 125 -12 79 -256 1210 -271 1263 -12 38 -49
77 -74 77 -10 0 -7 -12 10 -42 33 -61 72 -163 90 -238 72 -301 89 -416 62
-426 -9 -3 -27 1 -41 10 -19 13 -25 25 -25 54 -1 50 -32 116 -80 168 -22 24
-40 52 -40 63 0 36 -41 132 -72 167 -20 23 -39 65 -58 127 -16 55 -42 113 -63
145 -20 29 -45 83 -56 119 -11 36 -38 91 -60 122 -25 36 -45 80 -54 117 -8 39
-29 83 -60 127 -56 83 -68 138 -41 194 17 34 27 41 97 64 45 15 84 35 93 47
17 25 54 38 160 56 95 17 120 27 158 60 32 29 73 42 156 51 110 12 121 16 166
57 43 40 50 42 157 59 100 16 117 22 169 58 45 33 71 43 125 51 98 14 132 25
198 66 53 33 73 39 165 50 83 10 122 20 180 48 41 19 118 44 170 56 52 11 133
38 180 60 47 22 122 46 168 55 45 9 119 33 165 54 58 27 117 45 200 59 103 19
123 26 164 57 51 39 49 38 181 56 79 10 104 18 158 51 54 33 84 43 177 59 126
22 169 34 212 59 40 23 149 60 178 60 30 0 127 33 159 54 33 21 104 41 213 60
57 10 121 29 170 52 44 20 125 47 180 60 55 12 134 37 175 54 41 17 111 38
155 46 44 9 104 20 132 25 29 6 77 23 107 39 60 32 130 52 244 70 48 8 97 25
146 51 62 33 92 41 183 53 69 9 130 24 168 40 64 29 177 59 297 81 52 9 100
27 150 54 61 33 92 43 173 55 103 15 174 35 281 80 34 14 97 31 140 37 44 6
108 23 144 39 79 35 114 44 250 64 128 19 160 28 213 60 50 28 123 50 227 66
50 8 105 27 165 55 76 36 103 44 175 50 129 11 177 22 257 61 71 35 202 64
295 64 23 0 63 14 105 36 82 43 136 60 223 69 36 4 90 16 120 26 30 10 64 19
76 19 13 0 57 14 100 31 48 19 115 36 178 44 80 11 115 21 168 49 37 19 86 37
110 40 227 26 281 38 359 77 70 35 94 41 206 54 97 11 141 21 182 42 65 31
149 43 162 22 5 -8 7 -30 4 -49 -5 -30 -2 -26 23 25 46 93 184 296 539 787
l34 47 -27 18 c-22 14 -57 19 -184 23 -139 5 -160 8 -195 29 -22 13 -45 32
-53 42 -19 28 -25 24 -50 -27 -36 -74 -165 -266 -290 -434 -143 -192 -356
-410 -447 -457 -158 -83 -301 -61 -413 62 -54 59 -84 132 -100 240 l-7 46
-114 -151 c-130 -174 -255 -310 -317 -346 -103 -60 -244 -35 -407 73 -249 166
-371 390 -337 620 33 219 137 425 337 668 164 200 400 412 626 563 156 105
262 160 422 216 19 7 18 8 -6 21 -24 13 -59 76 -59 108 0 6 -11 34 -24 62 -34
70 -26 80 71 80 69 1 85 5 140 34 54 29 75 34 170 42 120 9 139 14 233 57 57
26 68 36 84 73 44 100 160 179 261 179 59 0 138 23 240 70 79 36 101 42 180
47 121 6 152 -9 180 -92 11 -32 26 -60 33 -63 7 -2 34 10 60 27 45 29 58 31
182 40 127 9 137 12 215 50 45 23 86 41 92 41 11 0 65 64 96 112 44 70 67 78
242 84 66 2 152 10 190 19 82 17 294 20 345 4 20 -6 98 -10 179 -9 159 1 216
-10 184 -37 -13 -11 -14 -13 -3 -10 8 2 57 12 109 22 74 15 106 16 152 9 36
-6 63 -6 68 -1 13 13 61 0 56 -16 -2 -6 15 -26 38 -42 78 -56 113 -131 140
-295 4 -21 5 -20 6 7 2 56 40 243 76 373 101 367 439 1043 660 1320 120 151
232 192 346 128z m178 -1681 c19 -7 43 -24 54 -39 20 -26 20 -27 1 -59 -55
-95 -388 -166 -450 -97 -17 17 -16 22 12 80 16 34 42 77 58 95 l28 33 132 -1
c74 0 146 -5 165 -12z m-6483 -58 c55 -26 89 -78 114 -173 26 -102 25 -139 -4
-262 -32 -132 -75 -242 -245 -636 -77 -180 -141 -329 -141 -332 0 -2 17 0 38
5 20 5 83 12 139 15 l102 7 -27 21 c-37 28 -42 36 -42 77 0 39 25 68 92 108
21 12 47 36 59 52 11 16 44 41 72 55 29 15 66 39 82 55 17 15 52 38 79 50 27
11 67 38 90 59 54 49 91 67 155 76 62 8 86 -8 96 -65 9 -54 -11 -194 -34 -239
-27 -53 -233 -246 -295 -277 -28 -14 -67 -25 -88 -25 l-39 0 16 -31 c34 -65
25 -97 -67 -237 -88 -136 -184 -333 -238 -489 -24 -68 -49 -128 -57 -135 -13
-10 -9 -14 24 -23 30 -8 39 -16 41 -37 4 -37 -25 -53 -132 -73 -50 -9 -128
-30 -174 -47 -84 -29 -132 -31 -132 -5 0 23 42 52 132 93 47 21 85 40 84 42
-6 6 -162 -21 -214 -36 -54 -17 -58 -20 -75 -67 -32 -87 -67 -236 -67 -287 0
-42 10 -69 58 -161 85 -164 76 -230 -35 -270 -35 -13 -85 -49 -161 -116 -164
-144 -230 -173 -339 -151 -47 10 -65 21 -109 65 -59 58 -76 101 -94 238 -13
88 -7 226 15 387 8 52 12 96 11 98 -5 4 -480 -200 -493 -212 -18 -17 -272
-572 -303 -661 -66 -194 -132 -280 -236 -311 -135 -39 -296 17 -371 128 -49
74 -57 133 -34 232 16 64 65 196 117 311 2 6 -32 10 -93 10 -87 0 -104 3 -155
28 -70 34 -114 88 -139 168 -25 81 -24 137 5 253 52 203 137 297 274 302 55 2
74 9 135 45 40 24 169 94 287 155 118 62 221 117 227 121 20 13 157 273 378
719 208 418 275 566 275 604 0 29 -14 24 -185 -60 -217 -108 -485 -282 -851
-553 -161 -119 -162 -120 -153 -150 11 -38 -5 -111 -34 -155 -12 -19 -85 -79
-162 -135 -77 -56 -200 -158 -273 -227 -270 -252 -318 -284 -423 -284 -151 -1
-254 126 -290 358 -23 145 4 417 51 506 78 151 410 430 899 759 233 156 413
261 656 381 335 165 635 274 829 301 136 19 283 -18 391 -100 139 -105 232
-350 205 -540 -29 -203 -86 -350 -286 -734 -80 -153 -144 -280 -142 -282 2 -1
63 23 137 54 l133 56 165 390 c90 215 214 509 275 655 181 436 238 525 357
556 52 14 78 10 137 -17z m15207 -283 c43 -18 73 -53 87 -101 25 -89 39 -352
50 -935 6 -333 15 -634 20 -670 5 -36 14 -128 20 -205 6 -77 16 -167 22 -200
6 -33 12 -166 14 -295 2 -129 10 -312 19 -406 18 -194 35 -827 23 -862 -9 -27
-62 -52 -98 -46 -14 3 -47 20 -75 40 -98 68 -88 39 -102 287 -16 302 -16 417
0 418 8 0 9 2 0 5 -6 3 -193 -38 -414 -91 -338 -81 -408 -95 -435 -87 -27 8
-35 6 -55 -14 -20 -19 -105 -42 -489 -134 -500 -119 -503 -120 -528 -65 -15
33 -102 437 -102 473 0 17 12 45 30 67 17 21 30 45 30 55 0 55 -267 1293 -290
1347 -13 30 -30 48 -60 63 -22 11 -45 32 -50 45 -22 58 -102 465 -96 489 3 14
16 32 29 40 12 8 230 65 484 125 393 94 466 109 487 100 22 -10 28 -9 43 10
15 17 87 38 388 110 625 150 598 146 630 98 8 -13 36 -125 63 -248 51 -238 52
-268 12 -304 -15 -14 -20 -31 -20 -72 0 -54 245 -1221 276 -1316 15 -45 37
-67 67 -67 11 0 6 20 -20 86 -39 98 -37 77 -73 834 -42 888 -61 1244 -66 1249
-11 11 -4216 -642 -4604 -716 -745 -141 -857 -162 -1830 -348 -536 -102 -1078
-206 -1205 -230 -856 -162 -1175 -227 -1515 -306 -212 -50 -499 -117 -637
-150 -468 -109 -756 -177 -1123 -264 -593 -140 -672 -157 -682 -147 -6 6 -4
34 6 73 13 54 23 71 62 106 27 25 65 49 92 57 26 8 73 26 104 40 32 14 101 32
155 40 54 8 118 22 142 30 24 9 53 16 64 16 11 0 49 12 85 26 46 18 103 30
199 40 165 17 171 19 261 62 62 30 90 37 175 44 118 10 305 50 394 85 35 13
113 30 175 39 109 15 168 30 290 74 33 11 118 27 195 35 135 15 273 45 384 84
31 11 96 25 145 31 90 11 218 42 329 78 33 11 129 28 213 37 152 17 233 35
344 74 36 14 125 28 248 41 167 17 200 23 258 49 82 37 125 47 227 56 120 9
259 33 323 54 138 46 181 53 460 82 72 7 128 20 180 40 85 33 319 69 452 69
58 0 89 6 135 26 121 52 162 62 311 74 206 16 277 27 358 55 104 36 193 52
361 65 114 9 171 19 235 40 47 15 117 31 155 34 39 4 117 15 175 26 58 10 170
21 250 25 129 6 156 11 246 41 56 19 137 39 180 44 44 5 103 14 133 20 29 5
97 10 150 10 72 0 117 6 181 24 148 43 408 81 645 95 83 5 162 14 177 20 46
18 280 70 343 76 33 3 164 10 290 15 235 9 290 18 400 65 42 18 326 44 486 45
48 0 124 6 170 14 46 8 123 18 171 21 59 5 102 15 135 30 57 28 82 30 126 11z
m-9160 -51 c42 -42 61 -94 60 -159 -3 -143 -27 -193 -90 -183 -51 9 -82 33
-104 80 -25 56 -23 110 5 180 47 113 78 133 129 82z m-4855 -211 c-5 -25 -35
-41 -49 -27 -9 9 -9 16 1 28 17 21 52 20 48 -1z m-2966 -588 c9 -12 15 -29 12
-38 -3 -9 -7 -26 -9 -37 -6 -30 -24 -70 -167 -358 -219 -442 -218 -441 -584
-628 -78 -40 -163 -80 -190 -91 -57 -21 -174 -82 -212 -109 -18 -14 -84 -79
-102 -101 -14 -18 -62 -113 -80 -159 -36 -93 -40 -242 -8 -339 16 -48 90 -165
119 -186 54 -41 94 -81 116 -119 25 -44 27 -52 27 -188 1 -79 0 -143 -1 -143
-2 0 -2268 -708 -2289 -715 -6 -2 4 33 23 78 35 83 381 909 456 1089 35 84 44
97 66 100 23 3 27 10 39 63 8 36 23 70 38 86 13 14 40 63 59 109 19 46 46 95
59 109 14 14 38 59 54 99 15 41 42 90 58 110 16 21 38 60 50 88 11 29 41 78
66 110 25 33 51 77 58 98 7 22 30 58 50 80 21 23 52 71 70 108 18 37 40 74 50
83 17 15 18 13 24 -42 15 -126 71 -252 149 -336 30 -31 57 -57 61 -57 5 0 21
-9 36 -20 16 -11 40 -21 54 -22 14 -1 26 -6 26 -11 0 -5 39 -8 88 -6 97 3 165
26 262 89 79 51 117 83 279 238 36 34 74 65 84 68 9 3 17 10 17 15 0 5 5 9 10
9 6 0 23 12 39 28 15 15 39 35 54 46 65 45 152 142 202 223 75 122 168 243
187 243 5 0 14 5 21 10 59 50 83 68 161 123 150 105 228 157 237 157 5 0 9 4
9 8 0 9 65 42 94 48 10 2 20 5 22 7 11 10 41 1 56 -17z m13717 -201 c163 -32
330 -95 350 -132 5 -10 43 -179 85 -375 77 -363 80 -387 45 -414 -15 -12 -30
-16 -442 -115 -159 -38 -304 -69 -323 -69 -54 0 -67 23 -97 166 -42 197 -63
243 -106 229 -34 -11 -42 -57 -25 -152 15 -90 207 -989 225 -1058 6 -22 20
-62 31 -88 19 -44 23 -48 52 -45 30 3 31 5 34 54 2 31 -12 122 -38 241 -22
104 -40 197 -40 206 0 9 10 27 23 41 19 21 68 36 357 105 184 43 352 82 372
86 50 9 84 0 102 -28 8 -12 56 -212 105 -445 85 -392 90 -425 77 -455 -18 -44
-194 -211 -286 -274 -164 -110 -389 -198 -635 -248 -518 -105 -842 45 -990
458 -21 59 -83 322 -166 708 -121 566 -132 624 -137 745 -5 157 11 247 65 355
122 244 359 396 753 483 63 14 151 30 195 35 106 13 310 6 414 -14z m-2395
-585 c242 -62 402 -246 476 -551 57 -230 28 -447 -80 -604 l-31 -45 53 -23
c29 -13 73 -44 96 -68 72 -72 105 -150 151 -363 40 -181 53 -210 101 -229 25
-10 43 -25 50 -41 22 -59 102 -466 96 -490 -3 -14 -16 -32 -29 -40 -22 -15
-801 -206 -837 -206 -52 0 -102 98 -165 325 -19 66 -34 115 -34 110 -1 -6 17
-94 39 -195 22 -101 40 -195 40 -208 0 -34 -18 -62 -47 -73 -13 -5 -232 -59
-486 -119 -501 -120 -502 -120 -526 -62 -15 37 -101 437 -101 471 0 16 13 45
31 67 29 36 30 43 24 94 -6 49 -240 1153 -266 1254 -20 81 -31 97 -76 117 -25
11 -47 28 -52 41 -22 59 -103 468 -97 492 3 14 17 33 29 41 27 17 1154 289
1284 309 133 21 266 20 357 -4z m-2538 -580 c260 -65 432 -248 513 -544 29
-103 251 -1145 267 -1251 64 -417 -114 -717 -522 -879 -182 -72 -491 -136
-657 -136 -115 0 -249 33 -356 86 -168 83 -277 218 -345 428 -14 42 -85 353
-157 689 -121 564 -132 622 -137 743 -3 102 -1 149 12 208 50 225 228 420 480
529 142 61 422 131 601 151 74 8 222 -4 301 -24z m-2351 -575 c220 -57 381
-199 466 -410 82 -205 159 -600 159 -813 0 -216 -55 -357 -195 -498 -115 -116
-234 -174 -478 -235 -177 -43 -178 -44 -172 -69 11 -44 34 -69 69 -75 62 -12
70 -30 126 -288 47 -222 49 -239 35 -266 -9 -18 -28 -34 -47 -40 -18 -6 -241
-60 -495 -120 -502 -120 -508 -121 -532 -63 -16 38 -101 437 -101 472 0 19 12
43 32 65 l31 36 -11 77 c-18 117 -260 1241 -277 1288 -12 32 -25 45 -60 62
-28 13 -49 32 -55 47 -22 57 -102 466 -96 490 4 14 16 31 29 39 26 18 1146
289 1277 309 67 11 240 6 295 -8z m-3317 -740 c12 -9 28 -38 36 -68 32 -112
96 -437 89 -454 -4 -10 -17 -32 -29 -49 -31 -40 -55 -107 -159 -432 l-87 -273
63 -82 c222 -289 464 -589 496 -616 113 -94 97 -61 152 -323 56 -259 56 -286
3 -307 -49 -20 -863 -211 -898 -211 -49 0 -69 26 -88 116 -78 361 -90 393
-195 528 -55 71 -60 76 -55 45 16 -83 38 -124 77 -143 21 -10 44 -28 51 -40
15 -23 106 -435 106 -478 0 -50 -26 -67 -160 -99 -903 -219 -874 -214 -899
-151 -16 39 -101 437 -101 471 0 17 13 44 31 67 29 36 30 43 24 94 -10 77
-251 1200 -275 1283 -20 65 -23 69 -66 87 -27 12 -48 29 -53 44 -23 60 -103
465 -97 489 3 15 16 33 29 41 37 24 946 238 979 231 16 -4 35 -16 43 -28 7
-12 36 -125 63 -252 51 -242 52 -264 11 -301 -15 -13 -19 -30 -18 -73 2 -107
12 -110 39 -14 37 132 34 231 -18 458 -36 161 -39 182 -27 211 16 40 -1 34
435 138 195 46 373 88 395 94 58 15 78 14 103 -3z m13061 -233 c107 -9 167
-18 197 -31 56 -25 122 -38 269 -51 166 -16 248 -34 298 -68 54 -37 99 -52
153 -52 52 0 113 -22 176 -66 31 -21 70 -36 115 -44 80 -15 91 -20 139 -64 33
-30 58 -42 130 -61 12 -3 47 -26 79 -50 31 -25 64 -45 72 -45 8 0 37 -24 66
-52 28 -29 71 -66 94 -83 112 -80 204 -172 338 -335 71 -87 170 -198 197 -222
18 -16 47 -18 282 -18 182 0 294 5 371 16 213 30 197 30 240 -7 46 -41 68 -90
85 -184 19 -110 39 -206 52 -251 22 -77 -3 -104 -118 -133 -22 -6 -59 -27 -82
-46 -33 -29 -61 -41 -137 -60 -70 -17 -114 -35 -160 -65 -35 -23 -85 -48 -111
-56 -27 -8 -58 -24 -71 -36 -37 -35 -57 -118 -49 -212 3 -45 1 -110 -5 -146
-5 -36 -13 -105 -18 -155 -6 -67 -15 -103 -34 -142 -15 -29 -27 -65 -27 -80 0
-85 -49 -262 -87 -311 -31 -42 -52 -95 -52 -137 -1 -52 9 -57 95 -56 71 1 87
-2 152 -34 60 -28 97 -38 195 -50 145 -19 143 -18 232 -60 39 -18 94 -38 124
-45 41 -10 61 -22 90 -53 20 -22 55 -58 78 -80 52 -48 63 -84 63 -197 -1 -165
-30 -220 -129 -241 -73 -15 -113 -31 -158 -67 -21 -16 -72 -40 -113 -52 -41
-12 -103 -39 -138 -60 -35 -22 -90 -44 -121 -50 -84 -18 -136 -38 -176 -70
-40 -32 -44 -33 -129 -50 -32 -7 -98 -32 -146 -57 -69 -35 -106 -47 -166 -54
-42 -6 -95 -19 -118 -31 -135 -69 -141 -71 -236 -79 -134 -12 -152 -16 -223
-49 -34 -17 -78 -30 -97 -30 -19 0 -60 -7 -90 -16 -57 -15 -337 -35 -565 -39
-139 -2 -137 -2 -250 -70 -22 -13 -62 -29 -90 -35 -27 -6 -81 -29 -118 -52
-37 -22 -100 -49 -139 -60 -78 -21 -120 -40 -159 -73 -16 -12 -54 -27 -90 -34
-35 -7 -109 -34 -164 -61 -75 -36 -116 -50 -166 -55 -37 -3 -89 -17 -120 -32
-72 -34 -172 -61 -287 -78 -60 -9 -118 -25 -160 -45 -35 -16 -77 -30 -92 -30
-15 0 -47 -7 -71 -16 -24 -8 -92 -19 -150 -24 -58 -6 -134 -19 -169 -30 -34
-11 -70 -20 -78 -20 -8 0 -44 -12 -80 -26 -49 -19 -94 -28 -191 -35 -144 -10
-164 -14 -246 -41 -36 -12 -91 -21 -140 -22 -44 -1 -123 -8 -175 -15 -52 -6
-131 -17 -175 -22 -49 -7 -241 -9 -495 -7 -359 4 -422 7 -470 22 -34 11 -88
17 -140 17 -67 1 -98 6 -149 26 -45 18 -95 28 -170 34 -160 12 -272 37 -376
85 -29 13 -85 28 -125 33 -54 7 -94 21 -161 55 -49 25 -114 53 -143 61 -30 9
-69 27 -88 40 -18 14 -67 41 -108 61 -41 19 -87 47 -103 62 -15 14 -52 40 -81
57 -65 36 -165 114 -226 175 -25 25 -56 54 -70 65 -14 11 -46 46 -70 77 -25
31 -79 98 -121 150 -41 51 -90 123 -107 160 -17 37 -44 85 -60 105 -17 21 -35
62 -42 91 -15 66 -63 131 -116 158 -38 19 -57 20 -264 19 -202 -2 -224 -3
-236 -20 -10 -13 -11 -23 -2 -38 24 -45 106 -121 153 -143 59 -27 217 -181
239 -234 8 -19 35 -61 60 -93 25 -32 48 -68 51 -80 4 -12 30 -69 58 -127 l52
-105 0 -275 0 -275 -26 -50 c-14 -27 -35 -68 -47 -90 -11 -22 -31 -60 -43 -85
-68 -143 -336 -411 -517 -518 -30 -18 -71 -47 -91 -65 -20 -18 -65 -43 -101
-56 -36 -13 -86 -38 -112 -57 -25 -18 -78 -44 -117 -57 -38 -14 -92 -41 -118
-60 -27 -19 -66 -38 -88 -42 -68 -11 -108 -27 -158 -61 -32 -22 -73 -38 -125
-49 -107 -23 -129 -31 -192 -69 -38 -23 -86 -40 -152 -54 -53 -11 -130 -36
-172 -56 -47 -21 -106 -39 -153 -46 -140 -20 -174 -30 -216 -59 -47 -34 -121
-55 -252 -72 -65 -8 -112 -22 -170 -48 -74 -35 -147 -52 -273 -65 -24 -2 -67
-16 -95 -29 -71 -34 -184 -64 -293 -76 -88 -11 -149 -27 -190 -50 -38 -21
-194 -56 -342 -76 -74 -10 -122 -23 -170 -45 -64 -30 -101 -39 -257 -60 -64
-9 -165 -35 -240 -61 -99 -35 -173 -50 -276 -57 -108 -8 -120 -11 -167 -41
-56 -35 -136 -61 -193 -61 -70 0 -215 -31 -339 -71 -87 -29 -155 -44 -225 -50
-69 -7 -117 -17 -153 -34 -71 -33 -205 -64 -367 -85 -85 -11 -163 -33 -260
-73 -39 -16 -89 -28 -142 -31 -88 -7 -159 -23 -244 -56 -30 -11 -67 -20 -84
-20 -16 0 -53 -9 -81 -19 -27 -11 -81 -24 -120 -30 -152 -24 -185 -32 -255
-66 -70 -33 -79 -35 -182 -35 -164 0 -187 9 -283 104 -77 78 -81 84 -97 151
-9 39 -18 91 -21 117 -3 26 -15 73 -26 105 -36 98 -58 194 -69 297 -20 194
-86 195 -126 1 -33 -158 -111 -280 -310 -476 -161 -159 -179 -176 -220 -197
-22 -11 -58 -37 -79 -56 -21 -19 -61 -43 -88 -52 -26 -8 -73 -36 -104 -61 -33
-27 -74 -50 -103 -58 -27 -7 -79 -33 -117 -57 -41 -27 -87 -48 -114 -53 -59
-10 -104 -29 -165 -70 -34 -23 -71 -37 -115 -45 -36 -6 -85 -23 -110 -38 -72
-43 -117 -60 -180 -72 -76 -14 -134 -34 -169 -59 -32 -23 -81 -37 -198 -56
-46 -7 -95 -20 -110 -28 -103 -55 -129 -67 -157 -71 -17 -3 -69 -10 -115 -16
-61 -8 -108 -23 -168 -51 -62 -29 -112 -44 -201 -59 -64 -11 -126 -20 -137
-20 -11 0 -56 -16 -100 -36 -79 -35 -125 -46 -271 -64 -40 -5 -93 -19 -116
-31 -74 -38 -178 -63 -327 -80 -58 -6 -124 -22 -175 -41 -44 -17 -98 -37 -118
-44 -21 -8 -94 -20 -162 -28 -101 -12 -141 -22 -205 -50 -72 -32 -150 -49
-311 -71 -48 -6 -167 -40 -262 -74 -32 -12 -91 -24 -130 -26 -165 -12 -182
-15 -244 -50 -34 -19 -74 -35 -88 -35 -14 0 -51 -7 -82 -15 -31 -8 -111 -22
-178 -31 -87 -12 -139 -25 -186 -47 -69 -31 -117 -42 -246 -57 -48 -5 -99 -17
-124 -30 -67 -34 -246 -74 -405 -90 -82 -8 -113 -17 -174 -46 -45 -22 -101
-40 -140 -46 -36 -5 -104 -16 -151 -25 -47 -8 -105 -19 -130 -23 -25 -5 -87
-22 -138 -40 -60 -20 -126 -34 -185 -39 -58 -5 -110 -16 -141 -29 -27 -12 -56
-22 -65 -22 -33 1 -185 61 -209 82 -66 61 -126 185 -149 308 -3 14 -13 67 -24
117 -10 51 -19 106 -19 122 0 16 -14 59 -31 95 -42 90 -38 126 30 239 43 70
62 93 99 114 26 14 61 39 78 55 28 27 44 31 145 44 124 16 234 42 344 81 79
27 97 38 113 70 18 32 15 55 -14 109 -37 68 -43 93 -54 223 -9 98 -16 127 -50
205 -26 61 -44 124 -55 191 -22 137 -40 197 -67 222 -48 44 -85 48 -386 46
l-283 -3 -73 -29 c-45 -18 -83 -27 -99 -24 -63 12 -113 122 -127 274 -6 72
-15 113 -36 160 -35 78 -37 134 -7 159 12 10 52 23 87 30 36 7 85 24 108 39
56 35 142 68 198 76 74 10 105 24 140 60 23 24 52 40 92 51 48 14 67 27 122
84 77 80 81 100 35 172 -31 47 -58 158 -59 233 0 17 -7 55 -15 85 -8 30 -20
80 -26 110 -12 63 -46 105 -94 119 -19 5 -79 3 -153 -4 -110 -11 -128 -16
-180 -47 -45 -27 -82 -39 -156 -52 -175 -29 -202 -24 -302 62 -67 57 -81 76
-114 146 -52 114 -78 208 -90 321 -7 65 -20 121 -40 172 -43 107 -42 178 6
286 20 45 43 90 52 101 20 22 191 106 216 106 10 0 26 5 36 10 11 6 80 19 153
29 86 12 148 26 175 40 24 12 62 26 85 31 23 5 78 18 122 29 44 11 121 24 170
30 63 7 114 20 170 44 51 22 112 39 170 47 97 13 321 67 395 95 25 9 104 22
175 29 115 11 137 16 189 44 32 18 71 32 87 32 15 0 39 4 52 9 14 6 81 20 149
32 67 12 168 36 223 54 124 41 129 42 245 55 61 7 114 20 150 36 30 14 73 29
95 34 200 41 252 50 289 50 56 0 144 24 219 60 46 21 94 33 182 45 66 9 163
29 215 45 165 50 303 79 380 80 26 0 68 11 98 25 30 14 69 25 88 25 18 0 66
11 106 24 52 17 115 27 221 35 134 9 155 13 229 46 59 25 96 35 134 35 29 0
65 5 81 11 15 6 84 15 153 20 190 13 349 35 424 58 50 15 95 21 167 21 54 0
147 8 206 17 87 14 172 18 443 17 294 0 352 -3 470 -22 74 -11 169 -33 210
-47 41 -15 117 -35 168 -45 77 -15 100 -24 136 -54 25 -20 65 -45 91 -56 97
-42 253 -196 313 -308 24 -45 48 -84 53 -88 21 -12 32 -62 41 -184 12 -153 12
-160 0 -340 -14 -198 -24 -245 -66 -314 -19 -32 -40 -84 -47 -115 -7 -31 -30
-85 -52 -121 -23 -36 -52 -87 -65 -115 -13 -27 -44 -73 -68 -102 -80 -94 -51
-133 98 -133 96 0 235 -24 258 -45 25 -22 121 -63 168 -70 32 -5 58 -19 94
-52 28 -25 79 -58 112 -73 47 -21 82 -50 156 -126 138 -143 168 -181 204 -259
18 -38 45 -85 60 -102 18 -22 34 -60 47 -115 11 -46 26 -101 33 -123 29 -87
65 -212 71 -247 15 -94 68 -98 143 -11 59 69 78 78 182 94 50 7 112 25 150 42
36 16 85 33 110 37 25 4 78 13 118 19 129 20 139 37 117 204 -9 73 -25 140
-40 177 -14 33 -25 74 -25 92 0 18 -11 67 -24 108 -14 41 -30 121 -35 178 -15
144 -42 208 -104 249 -27 18 -84 44 -127 57 -74 24 -84 24 -211 16 -74 -4
-161 -15 -195 -24 -37 -10 -113 -17 -197 -18 -171 -4 -175 -1 -187 120 -6 53
-17 96 -34 130 -14 28 -26 61 -26 72 0 11 -12 48 -26 82 -28 68 -28 116 2 149
34 37 161 98 240 114 77 16 206 63 247 89 12 8 43 20 68 26 55 14 207 135 226
180 10 23 10 48 -2 127 -9 54 -18 118 -22 143 -3 25 -23 83 -44 130 -26 59
-41 112 -50 175 -20 142 -57 165 -159 100 -30 -19 -59 -35 -65 -35 -96 -3
-226 -24 -286 -45 -41 -14 -101 -29 -135 -32 -54 -5 -68 -2 -145 32 -98 43
-108 51 -163 129 -22 32 -46 66 -53 75 -7 9 -22 86 -34 171 -18 127 -28 169
-57 235 -31 69 -37 93 -40 175 -6 141 4 169 102 268 70 72 88 84 136 97 30 8
80 15 110 15 36 0 76 9 115 26 92 39 170 62 254 74 42 6 106 15 142 20 36 5
112 28 167 50 79 32 118 42 184 46 82 5 176 28 353 86 54 17 130 33 190 39
113 11 145 19 232 60 33 17 83 32 110 34 211 20 262 28 313 51 89 39 218 74
315 84 133 15 153 20 230 55 65 29 120 41 280 60 51 6 138 30 259 72 38 13
114 28 170 34 114 11 165 23 217 50 21 10 61 23 91 28 29 5 107 21 173 36 66
15 140 31 165 35 25 5 75 18 110 30 66 22 103 29 290 54 58 8 139 26 180 39
104 34 279 64 445 77 97 8 171 20 240 40 141 40 291 61 505 71 102 4 203 13
225 18 66 17 860 14 937 -3 35 -8 101 -17 148 -21 105 -8 151 -19 196 -50 40
-27 102 -51 156 -60 24 -4 55 -21 85 -47 27 -23 71 -52 98 -64 64 -30 99 -61
179 -157 39 -49 72 -101 85 -137 12 -31 32 -74 46 -94 44 -65 58 -144 57 -321
-1 -114 -6 -176 -18 -215 -8 -30 -20 -74 -24 -97 -5 -23 -18 -59 -28 -80 -10
-21 -29 -74 -42 -118 -14 -50 -35 -95 -55 -120 -47 -59 -55 -78 -55 -137 0
-29 -4 -59 -9 -66 -4 -7 -31 -24 -59 -37 -44 -20 -52 -29 -63 -65 -17 -55 -5
-74 49 -78 51 -4 76 20 92 90 10 42 18 51 48 66 30 14 41 28 62 79 15 37 41
78 63 100 21 20 45 49 52 64 20 38 63 69 95 69 47 0 116 26 164 63 30 23 62
37 93 42 72 11 146 42 178 75 15 16 50 37 76 45 77 26 88 49 114 234 4 24 20
67 36 96 23 40 32 74 39 141 13 120 17 131 54 189 34 51 50 92 60 156 4 20 25
65 47 99 22 35 51 86 64 114 12 28 34 62 49 76 15 13 41 49 58 80 36 63 99
147 178 234 30 34 82 93 115 131 33 39 80 90 105 115 85 83 265 237 310 265
25 15 63 44 85 65 22 20 58 47 80 60 22 13 61 40 86 61 25 20 63 45 84 53 22
9 63 35 91 57 29 22 75 49 103 60 28 10 71 34 95 53 25 19 68 42 96 51 28 9
72 33 98 53 28 21 78 45 122 59 42 13 100 39 130 58 30 20 90 47 132 60 42 13
116 43 163 65 47 22 109 45 137 50 28 6 71 22 96 38 78 48 86 51 142 62 136
27 181 41 218 64 42 26 124 49 240 66 40 5 112 26 160 45 88 34 147 48 282 65
41 5 120 23 175 39 55 16 136 37 180 47 74 16 120 21 400 44 75 6 135 17 190
36 75 26 92 28 275 31 107 1 220 6 250 10 86 12 578 9 749 -5z m-15978 -482
c174 -20 407 -95 440 -141 26 -36 172 -731 160 -761 -17 -45 21 -32 -464 -149
-159 -38 -303 -69 -321 -69 -27 0 -76 29 -76 45 0 2 -14 68 -30 145 -29 135
-48 191 -70 205 -19 12 -48 -6 -59 -35 -14 -41 -3 -100 119 -665 113 -529 114
-532 142 -598 19 -44 23 -48 52 -45 l31 3 -2 80 c-1 50 -15 139 -37 240 -20
87 -36 167 -36 177 0 9 10 28 23 42 19 21 68 36 357 105 184 43 352 82 372 86
50 9 84 0 102 -28 8 -12 56 -212 105 -445 84 -390 90 -425 77 -455 -17 -42
-204 -220 -291 -278 -161 -107 -389 -195 -630 -244 -518 -105 -842 45 -990
458 -21 59 -83 322 -166 708 -121 566 -132 624 -137 745 -5 155 10 242 62 350
116 243 361 400 756 488 196 43 352 54 511 36z m-2314 -552 c12 -13 190 -419
397 -903 207 -484 392 -906 411 -936 22 -36 46 -61 66 -69 17 -7 37 -23 44
-34 15 -23 105 -439 105 -484 0 -57 -19 -64 -440 -165 -549 -132 -544 -131
-573 -123 -15 3 -33 16 -41 29 -17 25 -106 431 -106 481 0 19 10 46 25 66 14
19 25 41 25 50 0 15 -12 14 -110 -9 -126 -29 -135 -42 -58 -79 26 -12 52 -30
57 -40 13 -25 101 -438 101 -476 0 -61 -13 -66 -450 -170 -223 -53 -418 -96
-433 -96 -56 0 -70 29 -117 245 -57 266 -58 277 -29 328 30 53 30 36 -11 1205
-26 710 -30 889 -20 913 10 23 23 32 64 44 127 37 1005 244 1037 244 25 1 42
-6 56 -21z m-2917 -3486 c0 -42 -62 -92 -115 -92 -25 0 -65 31 -65 50 0 25 80
57 148 59 24 1 32 -3 32 -17z m23977 -266 c69 -33 103 -90 118 -199 5 -38 15
-56 51 -92 73 -75 63 -109 -62 -191 -76 -50 -97 -59 -181 -75 -66 -13 -109
-27 -142 -48 -64 -42 -107 -57 -175 -66 -72 -8 -134 -30 -161 -55 -28 -26 -96
-49 -183 -61 -81 -11 -132 -30 -153 -55 -22 -26 -74 -44 -157 -54 -105 -13
-142 -25 -179 -59 -33 -30 -136 -61 -203 -61 -37 0 -97 -29 -128 -63 -20 -21
-39 -27 -110 -37 -112 -15 -155 -26 -222 -60 -30 -15 -91 -35 -135 -45 -96
-21 -194 -52 -295 -93 -41 -16 -109 -38 -150 -47 -41 -10 -91 -25 -110 -35
-46 -22 -149 -55 -232 -74 -37 -8 -91 -26 -120 -39 -55 -25 -113 -43 -233 -73
-38 -10 -112 -35 -164 -56 -52 -21 -133 -45 -180 -54 -47 -8 -122 -31 -167
-50 -107 -45 -136 -54 -218 -64 -48 -5 -90 -19 -136 -43 -36 -19 -102 -42
-145 -51 -44 -10 -102 -22 -130 -28 -27 -5 -64 -18 -81 -28 -45 -25 -139 -57
-206 -69 -32 -6 -86 -22 -121 -36 -98 -39 -219 -73 -302 -84 -80 -12 -129 -28
-174 -60 -26 -19 -111 -40 -221 -56 -24 -3 -78 -21 -120 -39 -98 -44 -157 -62
-255 -76 -45 -6 -115 -27 -160 -45 -72 -31 -113 -42 -291 -76 -28 -5 -71 -21
-96 -34 -53 -28 -158 -58 -268 -76 -41 -6 -107 -27 -147 -45 -63 -28 -137 -47
-278 -69 -22 -4 -63 -17 -90 -30 -77 -37 -171 -62 -279 -76 -81 -11 -108 -19
-155 -47 -43 -26 -78 -37 -151 -49 -90 -15 -122 -24 -285 -80 -86 -30 -194
-53 -244 -53 -43 0 -101 -18 -176 -55 -53 -25 -167 -52 -268 -61 -44 -5 -81
-17 -126 -41 -36 -19 -89 -39 -118 -44 -29 -5 -78 -13 -108 -19 -30 -5 -79
-14 -107 -19 -29 -5 -86 -23 -126 -40 -76 -33 -113 -42 -276 -66 -54 -9 -130
-28 -170 -45 -79 -32 -169 -54 -295 -70 -61 -8 -104 -21 -154 -46 -55 -28 -94
-39 -191 -53 -83 -12 -142 -27 -182 -45 -61 -29 -267 -76 -332 -76 -20 0 -68
-14 -107 -30 -38 -17 -76 -30 -83 -30 -8 0 -60 -11 -116 -24 -55 -13 -141 -29
-191 -36 -56 -7 -121 -24 -170 -45 -52 -21 -126 -40 -215 -55 -74 -12 -182
-37 -240 -55 -126 -40 -228 -62 -335 -71 -49 -4 -101 -15 -135 -30 -86 -37
-244 -74 -364 -85 -94 -9 -119 -16 -180 -46 -52 -26 -91 -38 -149 -45 -123
-13 -332 -57 -426 -88 -49 -16 -131 -34 -191 -40 -66 -7 -132 -22 -180 -40
-82 -30 -265 -67 -400 -80 -51 -5 -127 -22 -190 -43 -114 -38 -177 -52 -314
-67 -104 -12 -184 -30 -316 -70 -56 -17 -152 -35 -235 -45 -95 -11 -167 -25
-225 -45 -47 -16 -96 -30 -110 -30 -14 0 -66 -9 -115 -19 -50 -11 -135 -22
-190 -26 -70 -5 -126 -15 -185 -36 -98 -33 -190 -54 -275 -64 -90 -10 -307
-51 -420 -80 -55 -14 -161 -32 -235 -40 -74 -8 -180 -27 -235 -41 -55 -14
-125 -29 -155 -34 -30 -5 -86 -16 -125 -25 -38 -8 -129 -19 -201 -24 -107 -7
-150 -15 -242 -45 -61 -20 -124 -36 -139 -36 -16 0 -43 -4 -62 -10 -19 -5 -88
-14 -155 -20 -135 -12 -296 -40 -401 -70 -76 -22 -191 -37 -380 -49 -81 -5
-138 -15 -175 -29 -108 -40 -380 -81 -576 -86 -145 -4 -154 -6 -245 -41 -105
-42 -171 -52 -399 -64 -85 -4 -193 -15 -240 -24 -47 -9 -114 -21 -150 -27 -35
-7 -77 -18 -93 -27 -36 -18 -154 -30 -397 -39 -137 -5 -202 -12 -250 -26 -212
-63 -311 -76 -665 -87 -148 -5 -283 -14 -298 -20 -16 -6 -38 -11 -50 -11 -12
0 -58 -14 -102 -32 -76 -29 -89 -31 -246 -36 l-166 -4 -34 30 -34 30 -3 180
-3 180 46 32 c79 54 151 83 191 75 l36 -6 -8 -146 -7 -146 39 7 c21 4 206 39
409 77 379 72 429 79 1145 174 228 31 512 69 630 85 118 16 285 38 370 49 85
11 288 38 450 60 162 22 431 59 596 81 333 45 433 63 1439 260 138 27 403 79
590 115 187 36 441 85 565 110 124 24 414 80 645 125 231 44 497 96 590 115
94 19 348 68 565 110 420 81 664 133 1525 325 297 67 749 168 1005 225 256 57
607 136 780 175 173 39 405 91 515 115 110 24 286 67 390 94 105 27 330 86
500 131 549 144 893 234 1375 360 102 27 282 74 400 105 118 31 316 83 440
115 431 113 567 149 805 215 132 37 319 89 415 115 294 82 712 198 1185 330
313 88 553 154 755 210 1089 301 988 269 2570 812 1394 479 1790 615 2105 725
72 24 151 52 177 61 45 15 46 16 43 51 -2 20 -17 83 -34 140 -17 57 -31 105
-31 108 0 8 46 22 75 22 17 1 53 -10 82 -23z m-3191 -2158 c-166 -403 -419
-1014 -423 -1024 -2 -6 -15 -17 -28 -24 -16 -8 -27 -26 -31 -47 -4 -19 -25
-58 -49 -86 -53 -66 -62 -84 -75 -145 -8 -34 -21 -59 -44 -81 -19 -18 -44 -60
-57 -92 -13 -33 -41 -82 -61 -110 -21 -27 -41 -61 -44 -76 -4 -14 -31 -52 -60
-84 -39 -43 -57 -73 -69 -114 -9 -31 -29 -71 -44 -88 -50 -59 -168 -232 -181
-266 -8 -19 -33 -57 -57 -83 -24 -27 -43 -53 -43 -59 0 -5 -26 -38 -57 -73
-32 -35 -75 -88 -96 -117 -20 -30 -64 -85 -97 -124 -134 -156 -176 -209 -200
-250 -14 -23 -49 -69 -78 -101 -29 -33 -79 -88 -110 -123 -31 -35 -86 -96
-122 -135 -36 -39 -77 -87 -92 -106 -29 -40 -405 -413 -489 -486 -32 -27 -89
-76 -129 -109 -68 -56 -114 -98 -242 -221 -29 -27 -73 -64 -98 -81 -25 -17
-56 -43 -69 -57 -14 -14 -42 -31 -63 -36 -35 -10 -85 -48 -228 -177 -32 -28
-71 -58 -87 -66 -15 -9 -41 -30 -58 -47 -16 -18 -55 -45 -85 -60 -30 -15 -66
-40 -80 -55 -14 -15 -50 -40 -80 -55 -30 -16 -71 -44 -90 -64 -21 -23 -53 -42
-83 -51 -29 -9 -68 -32 -98 -59 -35 -32 -64 -47 -101 -56 -38 -9 -66 -25 -98
-54 -27 -25 -70 -51 -105 -64 -36 -13 -74 -36 -95 -57 -19 -20 -55 -42 -84
-51 -28 -9 -77 -35 -109 -56 -32 -22 -83 -48 -114 -59 -31 -10 -89 -36 -128
-58 -39 -21 -89 -44 -111 -51 -21 -7 -66 -26 -99 -43 -45 -23 -72 -29 -113
-28 -67 1 -109 -16 -169 -72 -43 -39 -135 -87 -168 -87 -6 0 -33 -20 -58 -44
-37 -35 -60 -47 -114 -60 -95 -24 -161 -46 -208 -69 -22 -11 -66 -26 -98 -33
-31 -8 -81 -26 -110 -40 -70 -36 -278 -94 -338 -94 -23 0 -56 -13 -95 -36 -50
-32 -67 -37 -114 -36 -30 1 -80 -6 -110 -15 -30 -8 -86 -19 -123 -23 -54 -6
-79 -15 -122 -44 -74 -49 -134 -60 -278 -53 -126 6 -153 0 -224 -51 -72 -52
-127 -61 -381 -66 -237 -5 -237 -5 -342 -39 -121 -39 -186 -51 -360 -68 -128
-12 -142 -12 -267 12 -68 12 -77 12 -140 -9 -65 -20 -85 -21 -468 -21 -220 1
-458 0 -530 -1 -101 -1 -149 3 -215 19 -56 14 -119 21 -185 21 -79 0 -117 6
-178 25 -47 15 -124 29 -194 35 -64 6 -148 17 -187 25 -39 8 -98 15 -131 15
-62 0 -80 4 -177 39 -39 14 -112 26 -220 35 -157 14 -198 23 -343 76 -88 33
-157 50 -199 50 -70 1 -123 18 -191 64 -37 25 -89 50 -118 56 -29 7 -68 19
-87 27 -19 8 -73 23 -120 33 -47 11 -116 30 -153 44 -37 15 -83 26 -101 26
-18 0 -66 17 -107 37 -41 20 -103 42 -138 50 -43 9 -83 27 -124 54 -44 30 -84
47 -155 64 -52 13 -104 33 -116 43 -11 11 -53 36 -92 55 -43 22 -81 49 -98 71
-25 33 -31 36 -80 36 -29 0 -73 6 -97 14 -49 15 -232 128 -294 182 -29 25 -49
34 -75 34 -44 0 -112 31 -158 71 -19 17 -54 39 -78 49 -24 11 -70 44 -103 74
-55 51 -65 56 -106 56 -53 0 -88 16 -129 58 -16 17 -54 41 -85 53 -31 13 -76
38 -100 57 -24 18 -60 42 -80 52 -20 11 -56 38 -81 60 -25 23 -64 54 -87 71
-23 16 -51 42 -63 59 -12 17 -37 34 -60 41 -22 7 -63 32 -91 56 -28 24 -63 50
-78 58 -14 7 -46 34 -71 60 -25 26 -70 59 -100 75 -30 16 -80 54 -110 85 -30
31 -85 74 -122 96 -59 36 -433 357 -425 366 2 1 691 113 1532 247 l1528 245
41 -44 c32 -34 139 -98 471 -284 l430 -239 430 -126 430 -127 690 -104 690
-104 650 -35 c358 -20 694 -36 747 -36 90 0 152 13 796 160 l698 159 536 186
c490 169 557 195 786 304 225 107 281 139 554 317 502 327 568 373 683 469 85
71 145 110 260 171 143 75 156 85 286 209 75 72 190 180 255 240 110 101 582
607 665 711 19 25 49 53 65 63 22 13 113 148 309 455 153 240 285 441 294 445
9 5 554 152 1211 326 1110 295 1392 371 1397 374 1 0 -27 -68 -61 -151z
m-4228 -1279 c17 -6 47 -31 67 -55 47 -57 100 -84 165 -84 46 0 55 -4 83 -35
30 -35 97 -63 118 -50 5 4 9 24 7 46 -2 46 3 52 42 51 65 -2 66 -13 3 -198
-18 -55 -51 -83 -168 -143 -80 -41 -116 -53 -180 -62 -107 -14 -123 -39 -73
-111 23 -33 23 -45 -2 -110 -17 -47 -38 -70 -158 -180 -76 -69 -158 -136 -183
-147 -25 -12 -55 -37 -69 -57 -13 -20 -41 -47 -60 -60 -20 -14 -47 -38 -59
-55 -29 -39 -77 -59 -140 -59 -47 0 -52 2 -67 32 -11 22 -20 72 -24 148 -6 94
-14 131 -40 200 -18 47 -37 98 -43 113 -16 45 -55 59 -145 51 -44 -3 -96 -15
-120 -26 -37 -18 -46 -19 -57 -7 -20 20 -85 147 -85 164 0 21 24 29 49 15 18
-9 25 -7 46 14 28 28 32 63 10 92 -37 49 -3 82 54 51 53 -29 92 -15 135 47 11
17 15 17 42 3 50 -26 71 -58 76 -115 4 -36 12 -60 25 -74 19 -19 26 -19 144
-9 138 12 149 15 267 65 57 24 113 39 179 47 55 7 101 19 110 27 19 19 10 57
-25 102 l-28 35 6 154 c5 145 7 154 29 172 27 22 28 22 69 8z m-2316 -843 c22
-5 35 -20 58 -67 17 -33 37 -62 45 -65 8 -4 29 -1 47 5 18 7 80 16 138 22 114
10 182 28 245 64 73 42 121 49 191 30 78 -21 104 -49 134 -143 13 -41 34 -90
47 -110 36 -52 41 -71 59 -205 18 -146 28 -188 53 -218 l18 -22 62 17 c34 10
101 21 149 26 96 10 132 -1 132 -41 0 -45 -28 -77 -87 -99 -33 -12 -77 -40
-103 -64 -77 -72 -176 -75 -231 -6 -43 53 -79 58 -149 22 -110 -58 -271 -91
-441 -92 -96 0 -111 -46 -58 -187 31 -81 35 -150 11 -188 -15 -25 -35 -35 -97
-55 -43 -14 -96 -38 -119 -54 -40 -29 -142 -66 -182 -66 -11 0 -48 -18 -83
-41 -34 -22 -81 -47 -104 -55 -86 -31 -178 9 -192 83 -4 21 -21 72 -40 113
-18 41 -36 100 -40 130 -11 79 -19 90 -66 90 -29 0 -53 -9 -82 -30 -56 -39
-167 -68 -307 -79 -196 -16 -204 -24 -198 -183 5 -121 13 -147 65 -216 20 -26
33 -55 33 -72 0 -27 -8 -33 -107 -81 -58 -29 -123 -56 -142 -60 -20 -4 -70
-14 -112 -23 -87 -17 -368 -32 -422 -22 -48 9 -96 50 -119 104 -11 25 -25 94
-33 163 -7 66 -18 126 -25 134 -19 23 -52 18 -99 -17 -53 -39 -123 -55 -266
-63 -130 -8 -192 -25 -229 -64 -36 -37 -42 -85 -27 -205 14 -109 9 -125 -44
-150 -32 -15 -72 -17 -368 -14 -324 3 -333 4 -368 25 -20 13 -48 41 -63 63
-15 23 -36 44 -48 49 -12 4 -56 0 -107 -11 -71 -16 -124 -19 -306 -18 -231 1
-285 8 -328 43 -72 60 -117 208 -117 383 0 110 -36 171 -111 189 -19 5 -48 -2
-95 -23 -45 -20 -102 -34 -164 -42 -52 -7 -122 -21 -155 -31 -84 -26 -111 -24
-145 9 -49 49 -54 181 -9 212 12 8 36 30 54 48 44 45 58 59 113 113 45 44 50
46 122 52 105 9 139 23 156 63 9 21 21 34 32 34 37 0 178 -175 204 -253 17
-50 37 -67 78 -67 24 0 49 10 76 29 34 25 58 32 189 50 159 23 305 63 329 90
19 21 46 95 46 126 0 29 23 48 58 47 215 -6 295 -11 304 -20 17 -17 -9 -106
-41 -136 -17 -16 -53 -33 -87 -42 -72 -19 -99 -36 -124 -77 -24 -38 -25 -68
-5 -144 8 -31 15 -96 15 -144 0 -96 10 -135 51 -194 15 -23 30 -61 34 -88 13
-93 75 -113 162 -53 71 49 131 66 263 76 129 10 176 21 214 51 23 18 26 28 26
77 0 36 -8 74 -21 102 -40 88 -79 204 -79 238 0 19 7 46 16 61 21 35 74 71
105 71 14 0 43 9 64 21 63 32 117 49 160 49 89 0 112 57 45 111 -45 36 -48 47
-20 71 54 47 186 74 318 66 59 -4 67 -7 97 -40 29 -31 34 -45 40 -109 11 -112
44 -271 60 -289 27 -30 45 -89 45 -147 0 -111 47 -132 129 -59 53 48 62 50
226 66 120 12 156 20 227 56 77 39 91 89 68 248 -9 62 -23 97 -74 193 -10 19
-20 71 -25 127 -4 52 -14 102 -21 111 -8 10 -30 15 -64 15 -42 0 -61 -6 -100
-32 -90 -61 -108 -68 -172 -68 -46 0 -65 5 -81 20 -22 20 -58 124 -48 140 3 5
27 9 54 8 59 0 99 20 134 65 22 30 34 36 82 42 68 8 91 34 81 90 -4 19 -2 44
4 55 9 16 17 18 53 14 75 -10 91 -23 100 -79 15 -92 37 -154 59 -166 27 -14
125 -5 228 21 42 11 115 24 163 29 48 6 123 22 167 36 88 27 112 30 139 15 25
-13 50 -79 58 -151 4 -41 18 -84 43 -134 38 -73 52 -133 66 -280 11 -126 30
-141 108 -81 42 32 52 35 143 41 129 9 184 20 263 51 134 53 170 94 145 167
-8 23 -15 57 -15 76 0 69 -24 168 -60 256 -21 50 -40 110 -43 134 -8 64 -23
75 -103 72 -72 -2 -112 -18 -156 -59 -30 -27 -134 -50 -231 -51 -95 -1 -156
53 -136 122 12 44 24 53 84 66 53 12 91 43 79 63 -11 17 55 30 181 37 l130 6
17 35 c23 48 37 62 56 56 9 -2 29 -7 44 -10z m-1592 -227 c0 -12 -27 -11 -35
1 -11 17 5 32 21 19 8 -6 14 -15 14 -20z m-3589 -1270 c10 -5 34 -43 55 -84
44 -87 40 -99 -37 -116 -71 -16 -141 2 -214 56 -16 13 -40 26 -52 29 -37 11
-73 46 -73 71 0 32 25 49 84 57 62 8 213 0 237 -13z"/>
<path d="M17390 24962 c-88 -23 -158 -76 -214 -160 -108 -163 -129 -380 -43
-437 14 -9 53 -20 87 -25 34 -5 64 -11 67 -14 7 -7 -32 -142 -71 -246 -39
-104 -41 -102 62 -53 37 17 67 42 98 82 59 74 158 269 183 359 55 199 67 441
23 484 -28 29 -108 33 -192 10z"/>
<path d="M16314 24361 c-87 -53 -268 -328 -438 -668 -301 -602 -387 -920 -374
-1387 l5 -181 -71 -100 c-266 -373 -468 -557 -672 -610 -183 -48 -300 24 -320
196 l-6 54 73 50 c266 181 494 396 617 584 169 257 162 521 -15 570 -134 38
-385 -43 -568 -181 -253 -192 -463 -522 -517 -814 -7 -37 -16 -63 -22 -61 -6
2 -127 -151 -269 -341 -141 -190 -259 -347 -261 -349 -2 -2 -18 19 -36 46 -45
71 -141 157 -216 194 -35 17 -64 34 -64 37 0 3 102 134 226 290 254 321 284
366 284 427 0 76 -124 284 -190 318 -35 18 -44 15 -222 -91 -60 -35 -162 -91
-227 -124 l-119 -59 -24 47 c-16 33 -34 52 -60 65 -36 18 -38 18 -80 -1 -150
-67 -355 -434 -319 -570 14 -51 40 -73 96 -79 25 -3 45 -9 45 -13 0 -5 -43
-105 -95 -224 -53 -119 -93 -221 -90 -226 7 -11 -179 -245 -259 -326 -118
-118 -224 -167 -303 -141 -106 34 -95 180 37 492 90 214 107 293 75 354 -19
37 -69 79 -103 87 -15 3 -32 7 -39 9 -6 2 15 30 48 63 32 32 59 65 59 73 0 54
-96 130 -186 149 -91 19 -218 -19 -388 -117 -388 -222 -796 -626 -960 -950
-69 -138 -90 -215 -90 -338 -1 -106 0 -113 33 -179 77 -156 301 -333 445 -352
94 -13 183 85 541 586 92 129 171 239 176 244 19 21 20 -7 3 -111 -25 -154
-25 -362 0 -428 39 -104 103 -155 193 -155 64 0 132 33 215 103 202 172 634
771 614 852 -5 19 27 91 138 312 79 159 152 298 162 310 19 22 474 243 501
243 24 0 -99 -168 -346 -475 -209 -259 -252 -333 -235 -401 11 -41 51 -52 203
-52 128 -1 137 -2 189 -29 40 -20 66 -43 94 -84 l40 -56 -221 -307 c-286 -397
-335 -471 -386 -580 -52 -111 -69 -179 -67 -271 2 -121 45 -205 125 -244 58
-28 90 -26 162 7 186 88 415 352 549 632 110 229 148 393 150 640 l1 165 214
325 c118 179 220 331 227 339 10 12 14 7 19 -25 14 -82 38 -152 83 -244 60
-123 156 -224 258 -272 65 -31 75 -33 179 -33 100 1 117 4 191 33 264 105 552
399 775 791 l53 94 27 -81 c92 -275 225 -406 409 -405 263 2 524 256 830 806
92 166 91 163 25 227 l-33 32 -53 -78 c-176 -264 -350 -447 -493 -521 -76 -40
-165 -39 -231 2 -27 17 -64 50 -82 73 -44 58 -77 168 -77 257 l0 70 98 170
c216 376 401 785 471 1039 53 194 68 316 62 486 -12 330 -77 462 -193 391z
m-74 -669 c-16 -118 -69 -322 -125 -477 -73 -202 -238 -536 -255 -518 -11 10
29 230 75 419 71 290 174 539 268 649 50 59 54 52 37 -73z m-1359 -1123 c16
-16 20 -29 16 -54 -16 -101 -118 -277 -242 -417 -74 -85 -224 -218 -245 -218
-23 0 35 212 90 326 68 141 190 288 300 360 44 29 55 29 81 3z m-3321 -1113
c0 -9 -196 -349 -285 -496 -174 -286 -302 -465 -404 -566 -68 -68 -146 -110
-184 -100 -69 17 -99 172 -58 304 61 201 320 460 767 766 123 84 164 107 164
92z m1747 -963 c-15 -219 -141 -485 -324 -683 -66 -71 -174 -160 -196 -160
-17 0 -1 159 22 221 12 32 45 92 74 135 73 108 417 574 424 574 3 0 3 -39 0
-87z"/>
<path d="M11130 21014 c-86 -71 -236 -220 -285 -283 -63 -83 -103 -168 -111
-235 -7 -56 -6 -58 13 -47 20 10 90 88 150 166 55 72 300 447 290 444 -1 0
-27 -20 -57 -45z"/>
<path d="M18638 24025 c-79 -16 -132 -55 -165 -124 -24 -48 -28 -69 -29 -146
l0 -90 -349 -560 c-191 -308 -359 -582 -371 -610 -29 -62 -30 -95 -3 -129 36
-46 100 -33 138 30 11 18 13 17 34 -11 12 -16 51 -59 87 -95 114 -114 266
-176 460 -187 260 -14 423 58 650 286 151 152 331 393 450 604 l32 57 -42 71
c-23 39 -45 67 -50 62 -4 -4 -69 -91 -145 -193 -211 -283 -325 -391 -467 -444
-67 -25 -158 -43 -158 -31 0 4 23 32 51 63 75 85 165 221 214 325 58 122 85
235 85 358 0 149 -22 218 -161 494 -66 132 -126 246 -133 253 -22 23 -69 29
-128 17z m-38 -745 c80 -175 91 -212 91 -320 0 -124 -37 -205 -160 -348 l-61
-71 -83 59 c-105 76 -172 103 -259 104 -66 0 -67 1 -55 21 8 11 109 179 226
373 118 194 217 350 222 345 4 -4 40 -78 79 -163z"/>
<path d="M18388 23001 c-60 -98 -108 -182 -108 -187 0 -5 26 -21 58 -36 31
-15 70 -35 85 -45 l29 -18 29 35 c17 19 44 63 61 98 29 58 31 67 24 138 -5 70
-48 195 -65 194 -3 -1 -54 -81 -113 -179z"/>
<path d="M14700 22935 c-14 -8 -20 -14 -15 -14 6 0 21 6 35 14 14 8 21 14 15
14 -5 0 -21 -6 -35 -14z"/>
<path d="M14590 22884 c-70 -37 -81 -36 -139 3 -32 22 -43 24 -91 18 -59 -7
-123 -32 -171 -66 -38 -27 -158 -48 -274 -49 -103 0 -135 -14 -135 -58 0 -41
24 -145 59 -258 21 -67 31 -122 31 -163 0 -63 -16 -149 -31 -165 -4 -5 -28 34
-54 85 -26 52 -51 99 -56 104 -6 6 7 -26 28 -70 32 -67 38 -90 38 -145 0 -99
-36 -161 -230 -405 -92 -115 -179 -225 -193 -243 l-25 -33 24 -17 c13 -9 42
-33 64 -53 l40 -37 214 286 c214 286 214 287 242 382 73 250 189 449 373 638
99 103 182 169 288 233 94 56 93 63 -2 13z"/>
<path d="M15365 22543 c-39 -259 -283 -564 -702 -875 -51 -38 -93 -73 -93 -77
0 -5 9 -20 21 -35 18 -23 27 -26 83 -26 169 0 380 180 646 549 l54 74 0 219
c1 120 0 218 0 218 -1 0 -5 -21 -9 -47z"/>
<path d="M12860 22560 c-14 -4 -77 -26 -140 -48 -82 -29 -150 -45 -240 -57
-85 -11 -133 -22 -150 -34 -24 -17 -25 -23 -25 -122 0 -57 3 -158 8 -224 4
-66 3 -143 -1 -172 -5 -29 -5 -50 0 -47 4 3 8 11 8 17 0 7 16 49 35 95 77 188
251 395 358 427 86 26 155 14 220 -37 l37 -30 78 42 c94 52 242 141 242 147 0
2 -3 2 -7 0 -5 -3 -48 -24 -98 -47 -139 -66 -191 -57 -214 35 -15 60 -47 76
-111 55z"/>
<path d="M12007 21710 c-14 -35 -14 -40 1 -52 22 -19 60 -106 68 -154 10 -66
-12 -145 -104 -374 -57 -145 -87 -232 -90 -268 l-5 -54 40 21 c22 11 66 43 97
72 60 54 246 280 246 298 0 5 32 83 71 171 70 160 70 162 50 176 -25 18 -66
88 -76 129 l-6 29 -20 -32 c-30 -46 -83 -75 -140 -76 -26 -1 -53 4 -60 11 -7
7 -22 42 -34 77 l-22 66 -16 -40z"/>
<path d="M12904 21622 c-12 -8 -38 -52 -30 -52 3 0 14 14 26 30 22 31 23 35 4
22z"/>
<path d="M2331 16314 c0 -11 3 -14 6 -6 3 7 2 16 -1 19 -3 4 -6 -2 -5 -13z"/>
<path d="M3375 16291 c-5 -10 48 -277 57 -287 10 -9 54 7 84 31 27 22 29 27
27 89 -2 74 -30 148 -61 165 -25 13 -99 15 -107 2z"/>
<path d="M3575 15323 c7 -32 25 -116 40 -188 15 -71 31 -134 35 -138 11 -12
85 28 104 55 27 38 15 181 -21 252 -28 55 -61 76 -119 76 l-52 0 13 -57z"/>
<path d="M10042 22628 c-35 -18 -114 -146 -168 -274 -27 -64 -161 -382 -299
-707 l-250 -592 -313 -128 c-173 -71 -316 -127 -318 -124 -3 2 91 186 207 408
291 556 337 664 362 846 25 186 -51 379 -181 461 -162 103 -358 77 -787 -105
-320 -135 -577 -276 -913 -500 -372 -248 -617 -437 -765 -592 -86 -91 -111
-132 -126 -216 -14 -77 -14 -319 0 -387 24 -111 90 -198 150 -198 66 0 93 19
339 248 79 74 200 174 269 224 69 49 136 102 148 117 40 47 25 104 -31 119
-29 8 -21 15 210 188 455 341 828 576 1049 659 95 36 175 36 210 0 53 -52 27
-168 -93 -420 -117 -245 -381 -771 -478 -950 l-86 -160 -230 -120 c-127 -66
-274 -146 -327 -177 -91 -55 -100 -58 -163 -58 -61 0 -69 -2 -99 -32 -58 -58
-99 -181 -99 -296 0 -64 22 -115 61 -144 58 -43 179 -40 335 7 45 14 84 25 88
25 9 0 -19 -73 -104 -270 -119 -277 -132 -350 -73 -412 44 -46 100 -71 165
-72 95 -1 145 53 204 221 19 57 101 246 182 420 l147 318 375 160 c216 93 376
156 378 150 1 -6 -8 -72 -22 -146 -48 -265 -59 -515 -26 -623 18 -60 60 -96
110 -96 57 0 101 26 205 121 97 89 168 139 197 139 10 0 18 3 18 7 0 4 -26 58
-57 121 -56 110 -58 116 -57 190 1 81 14 138 70 319 l34 112 93 30 c80 25 230
55 321 63 27 3 31 9 61 98 64 189 150 364 256 523 51 76 56 89 41 95 -9 4 -82
7 -162 7 -130 -1 -159 -4 -278 -34 -73 -18 -136 -31 -138 -28 -3 3 80 203 184
444 276 639 308 732 299 864 -7 106 -42 171 -90 168 -7 0 -22 -5 -35 -11z"/>
<path d="M24012 21334 c-12 -19 -22 -44 -22 -56 0 -21 60 -329 66 -336 4 -5
124 20 128 27 5 8 -62 319 -74 341 -5 10 -24 27 -43 37 l-33 20 -22 -33z"/>
<path d="M24255 20332 c-33 -8 -61 -16 -62 -17 -4 -2 76 -375 87 -411 7 -19
22 -36 43 -46 34 -16 34 -16 61 19 23 29 27 40 21 71 -15 90 -78 378 -84 388
-4 7 -24 6 -66 -4z"/>
<path d="M25441 19928 c-1 -20 24 -141 39 -183 9 -26 9 -22 6 25 -5 54 -43
191 -45 158z"/>
<path d="M19154 20066 c-5 -13 9 -88 52 -279 14 -62 18 -67 37 -61 12 4 35 16
51 27 l29 20 -6 86 c-6 96 -17 141 -47 189 -18 28 -25 32 -65 32 -30 0 -47 -5
-51 -14z"/>
<path d="M19367 19073 c-7 -11 38 -228 61 -298 14 -41 24 -53 54 -67 40 -19
68 -52 68 -82 0 -11 3 -17 6 -14 6 7 -47 271 -72 356 -8 28 -25 63 -37 77 -23
26 -71 43 -80 28z"/>
<path d="M16701 19504 c-12 -15 -21 -30 -21 -34 0 -33 190 -947 246 -1183 19
-77 45 -117 79 -117 45 0 58 26 52 105 -5 61 -201 1000 -241 1151 -27 104 -71
133 -115 78z"/>
<path d="M14353 18923 c-13 -2 -23 -9 -23 -15 0 -25 114 -544 121 -552 11 -12
51 0 77 24 32 30 29 88 -14 288 -55 255 -66 273 -161 255z"/>
<path d="M23805 18430 c-16 -4 -125 -8 -242 -9 -117 0 -270 -6 -340 -11 -118
-10 -135 -14 -218 -52 l-90 -41 -178 -8 c-193 -9 -244 -18 -272 -49 -32 -36
-138 -61 -293 -70 -141 -8 -144 -8 -180 -39 -57 -49 -93 -61 -212 -70 -113 -9
-149 -22 -170 -60 -14 -27 -81 -49 -173 -56 -95 -7 -99 -9 -120 -45 -20 -33
-72 -52 -196 -71 -73 -11 -91 -21 -121 -67 -16 -24 -51 -35 -153 -47 -53 -6
-60 -10 -82 -45 -30 -48 -27 -46 -105 -60 -36 -7 -75 -14 -87 -16 -14 -3 -28
-17 -37 -38 -17 -41 -23 -45 -104 -65 -59 -15 -69 -22 -97 -62 -29 -40 -36
-45 -84 -51 -54 -6 -95 -33 -107 -70 -7 -23 -39 -41 -89 -47 -36 -5 -42 -11
-63 -53 -16 -34 -30 -49 -47 -53 -14 -3 -36 -7 -51 -10 -15 -4 -33 -20 -46
-41 -11 -19 -34 -42 -52 -50 -17 -9 -58 -43 -91 -75 -33 -32 -108 -105 -167
-162 -59 -57 -118 -123 -132 -147 -14 -25 -42 -56 -63 -70 -25 -17 -39 -36
-44 -58 -8 -42 -23 -59 -64 -72 -34 -11 -38 -17 -50 -78 -4 -20 -25 -53 -51
-79 -47 -50 -47 -49 -64 -137 -9 -46 -21 -68 -52 -102 -38 -41 -42 -51 -54
-134 -14 -94 -29 -134 -68 -188 -34 -46 -46 -113 -46 -255 0 -134 -7 -155 -58
-176 -18 -8 -36 -28 -50 -56 -18 -38 -27 -45 -59 -50 -59 -10 -62 -12 -79 -49
-19 -39 -42 -52 -110 -61 -100 -14 -119 -22 -142 -64 -27 -48 -61 -61 -167
-64 -94 -2 -115 -20 -115 -97 0 -79 14 -85 192 -84 134 1 154 3 199 24 43 21
54 22 83 12 48 -18 84 -15 103 8 24 28 48 25 73 -10 14 -20 32 -31 58 -35 72
-12 82 -16 117 -47 49 -43 75 -97 75 -157 0 -46 3 -52 40 -81 50 -40 62 -61
71 -130 4 -30 12 -56 18 -58 31 -10 65 -52 96 -118 26 -56 41 -75 59 -80 31
-8 47 -26 66 -77 13 -34 21 -42 55 -51 33 -9 44 -19 62 -56 17 -37 29 -48 64
-60 34 -12 49 -25 67 -57 23 -43 44 -54 124 -68 30 -5 41 -13 60 -47 21 -39
28 -43 92 -59 53 -12 76 -23 93 -45 13 -16 28 -34 33 -41 6 -7 25 -14 42 -17
161 -22 183 -28 216 -54 68 -54 77 -56 267 -63 114 -5 204 -13 245 -24 36 -9
81 -19 100 -22 19 -3 40 -9 45 -13 18 -14 119 -28 165 -23 30 3 59 0 84 -11
34 -14 103 -16 547 -16 413 0 516 3 551 14 27 9 81 14 143 14 91 -1 106 2 165
29 78 36 171 52 342 58 122 5 130 6 190 39 77 42 187 66 305 66 130 0 212 14
230 39 26 38 90 59 238 81 44 6 98 20 120 30 22 10 85 28 140 40 137 30 158
37 184 61 31 29 207 98 252 99 44 0 85 20 100 46 17 33 32 40 130 64 45 10 98
30 118 43 20 14 69 33 110 42 58 14 85 27 128 62 81 66 96 70 210 59 68 -6
142 -5 243 3 80 7 197 14 261 15 96 1 121 5 145 21 16 11 52 22 79 26 28 4 77
17 110 29 36 13 103 25 170 31 144 12 163 16 181 44 25 39 62 56 138 66 39 6
98 22 131 38 135 64 155 71 231 82 91 12 105 19 133 58 25 35 86 57 181 65
100 9 135 19 144 41 2 7 29 29 58 48 84 54 108 81 108 121 0 64 -41 82 -210
92 -128 8 -145 14 -171 58 -29 49 -69 60 -197 53 l-105 -5 -42 -45 c-45 -50
-33 -46 -235 -67 -236 -24 -287 -38 -391 -107 -42 -27 -82 -27 -87 0 -5 25 14
45 65 69 27 13 50 32 60 52 8 17 30 47 49 66 18 19 42 56 53 81 18 41 38 62
80 88 7 5 17 30 22 57 9 48 20 63 83 106 18 13 28 33 36 75 16 79 26 96 66
118 39 21 54 60 54 138 0 79 26 153 65 182 18 14 36 38 40 52 3 15 8 175 11
357 4 366 4 364 72 391 27 11 44 28 62 62 16 30 38 53 61 65 20 10 49 36 64
58 31 45 43 48 187 60 104 9 148 21 148 40 0 5 14 25 30 43 21 24 30 45 30 68
0 59 -25 74 -98 59 -81 -16 -548 -20 -617 -4 -33 7 -77 16 -98 19 -30 5 -44
16 -78 61 -22 30 -47 58 -54 61 -8 2 -28 40 -46 82 -23 56 -39 81 -60 93 -16
10 -31 28 -34 45 -13 60 -33 91 -63 98 -33 7 -56 29 -66 62 -5 14 -18 25 -34
29 -66 14 -90 26 -100 49 -6 13 -29 36 -51 49 -22 14 -53 45 -70 70 -30 44
-70 66 -117 66 -38 0 -72 21 -85 52 -14 35 -30 44 -94 53 -84 11 -112 24 -134
60 -21 35 -66 55 -127 55 -17 0 -64 7 -103 16 -60 14 -76 22 -97 49 -29 38
-85 55 -180 55 -58 0 -109 20 -160 63 -20 17 -38 23 -59 21 -16 -2 -50 4 -75
13 -35 13 -92 17 -260 19 -118 1 -233 7 -255 13 -46 12 -484 13 -530 1z m-787
-901 c20 -7 34 -21 41 -40 10 -28 23 -37 86 -55 18 -6 41 -26 58 -52 16 -23
41 -49 56 -57 17 -8 37 -33 50 -60 12 -25 32 -50 45 -56 28 -13 46 -48 46 -92
0 -51 29 -120 62 -147 33 -28 58 -109 58 -193 0 -53 6 -68 58 -145 33 -48 36
-60 35 -114 -2 -91 -14 -109 -88 -142 -36 -16 -77 -42 -91 -60 -36 -42 -61
-55 -109 -56 -66 0 -118 -20 -160 -59 -39 -37 -96 -65 -152 -75 -38 -7 -53
-31 -53 -87 0 -65 16 -79 92 -79 59 0 155 27 238 68 28 14 63 17 178 17 134 0
145 -1 161 -21 9 -12 33 -26 53 -33 20 -7 42 -18 48 -26 7 -8 16 -61 21 -117
4 -57 8 -104 9 -105 0 -1 13 -17 29 -36 38 -42 61 -137 67 -277 8 -176 11
-186 55 -229 65 -65 51 -105 -55 -160 -51 -27 -69 -31 -140 -31 -45 -1 -112
-5 -149 -9 -65 -9 -80 -16 -164 -77 -14 -10 -67 -20 -150 -29 -143 -15 -177
-25 -193 -54 -17 -33 -67 -52 -149 -58 -93 -6 -126 -17 -152 -54 -27 -38 -53
-51 -116 -60 -73 -10 -103 -28 -121 -72 -27 -69 5 -104 129 -138 41 -12 101
-34 134 -51 33 -16 85 -33 115 -38 56 -10 100 -43 100 -75 0 -23 -54 -45 -108
-45 -26 0 -72 -7 -101 -16 -74 -22 -138 -11 -201 32 -27 19 -53 34 -56 34 -18
0 -76 55 -88 83 -8 18 -32 51 -54 74 -22 23 -42 52 -45 65 -21 89 -40 135 -66
162 -38 39 -57 85 -66 160 -5 37 -15 66 -27 78 -34 34 -66 122 -79 213 -9 66
-19 97 -40 128 -36 53 -53 108 -70 219 -14 98 -5 144 35 190 23 28 88 53 156
63 35 5 53 15 82 45 29 30 47 40 80 44 220 24 222 25 238 86 12 46 1 84 -32
101 -27 14 -230 19 -408 10 -100 -6 -133 -12 -167 -29 -23 -12 -49 -22 -57
-22 -27 0 -40 43 -46 160 -5 97 -9 120 -28 145 -49 67 -64 145 -75 389 -9 204
-8 237 7 301 12 53 25 80 46 100 16 15 31 43 35 63 9 51 30 79 69 96 18 7 46
32 62 55 30 42 35 45 97 56 25 4 44 15 59 35 27 37 91 56 210 63 76 4 92 8
130 35 24 17 59 35 78 41 84 25 393 39 448 20z m632 -3059 c12 -7 7 -12 -22
-25 -21 -8 -47 -15 -58 -15 -11 0 -30 -10 -40 -22 -69 -79 -64 -76 -136 -82
-38 -4 -103 -16 -144 -28 -84 -24 -141 -29 -147 -11 -2 6 8 25 24 41 29 31
102 60 218 87 33 7 96 25 140 38 86 26 141 32 165 17z"/>
<path d="M22635 17215 c-33 -14 -81 -27 -106 -30 -25 -2 -66 -13 -90 -23 -24
-11 -75 -27 -114 -36 -75 -19 -144 -64 -209 -136 -29 -32 -35 -48 -41 -102 -9
-95 10 -435 28 -488 9 -25 18 -62 22 -83 12 -71 93 -95 204 -59 79 25 270 62
326 62 37 0 96 12 201 39 22 6 70 24 106 41 36 17 94 35 129 41 35 6 78 19 95
29 45 28 134 126 134 147 0 10 -11 39 -24 63 -46 84 -57 112 -77 193 -17 67
-32 98 -87 177 -73 106 -121 155 -169 176 -22 9 -71 14 -150 14 -103 0 -126
-4 -178 -25z"/>
<path d="M23040 15747 c-25 -7 -71 -27 -102 -44 -40 -22 -82 -34 -145 -43
-154 -21 -186 -30 -275 -74 -48 -24 -106 -47 -129 -51 -94 -16 -104 -89 -31
-236 22 -46 50 -124 62 -173 21 -93 49 -149 80 -166 54 -29 196 2 300 65 37
23 83 39 140 50 99 20 180 45 236 73 38 19 77 28 223 51 82 13 153 59 182 119
l21 43 -21 92 c-11 51 -23 117 -27 147 -8 74 -27 115 -60 137 -24 16 -53 18
-219 20 -132 2 -204 -1 -235 -10z"/>
<path d="M15930 16470 c-19 -4 -62 -20 -95 -35 -44 -21 -85 -30 -155 -37 -52
-4 -136 -13 -187 -18 -50 -6 -145 -10 -210 -10 -145 -1 -296 -21 -321 -43 -10
-9 -40 -26 -66 -38 -41 -18 -79 -23 -230 -30 -203 -10 -231 -14 -264 -40 -13
-10 -37 -21 -55 -24 -18 -4 -59 -15 -92 -25 -33 -10 -109 -21 -170 -25 -160
-8 -181 -13 -231 -51 -38 -29 -58 -36 -144 -49 -55 -8 -128 -15 -162 -16 -119
-1 -163 -12 -206 -51 -47 -43 -93 -54 -262 -63 -80 -4 -124 -11 -147 -23 -17
-9 -54 -29 -81 -44 -58 -32 -140 -47 -268 -49 -100 -2 -130 -11 -188 -58 -31
-25 -48 -31 -85 -31 -25 0 -112 -9 -192 -19 -140 -18 -199 -36 -216 -65 -17
-28 -61 -39 -193 -46 -160 -10 -214 -22 -246 -57 -21 -22 -41 -28 -142 -44
-64 -10 -156 -19 -203 -20 -93 -2 -149 -16 -182 -47 -52 -47 -87 -55 -287 -67
-117 -8 -161 -20 -223 -61 -51 -35 -74 -40 -232 -49 -120 -7 -155 -17 -212
-61 -25 -19 -55 -34 -67 -34 -12 0 -30 -6 -40 -13 -16 -12 -18 -28 -14 -163
l3 -149 31 -40 c30 -39 38 -65 63 -209 13 -70 22 -83 67 -92 63 -12 125 4 159
41 46 51 107 75 192 75 72 0 154 20 183 45 8 7 43 21 78 30 60 17 66 17 130 0
37 -10 75 -24 84 -33 20 -17 34 -57 43 -125 5 -38 11 -50 35 -62 44 -23 49
-48 76 -358 4 -53 11 -74 30 -94 13 -14 24 -31 25 -37 2 -29 11 -65 25 -101
21 -52 37 -280 22 -309 -18 -35 -130 -144 -154 -150 -12 -3 -36 -24 -54 -46
-23 -29 -41 -41 -68 -45 -78 -12 -112 -26 -134 -55 -29 -39 -69 -56 -153 -65
-87 -9 -108 -17 -141 -54 -15 -17 -35 -33 -45 -36 -22 -7 -26 -47 -6 -62 6 -6
36 -18 65 -28 46 -15 78 -16 230 -11 236 8 221 8 351 -2 l113 -9 48 -52 c42
-46 51 -51 88 -51 42 0 82 -25 82 -52 0 -7 5 -74 10 -148 11 -134 11 -135 45
-170 40 -41 65 -127 65 -225 0 -91 24 -201 53 -243 42 -61 58 -141 64 -324 8
-231 9 -230 -125 -243 -75 -7 -110 -19 -134 -45 -29 -31 -114 -51 -253 -61
-71 -5 -141 -11 -155 -15 -13 -3 -49 -26 -79 -52 l-54 -46 5 -162 5 -161 36
-59 c20 -33 41 -79 47 -104 7 -25 17 -48 24 -52 6 -4 45 -8 87 -8 85 0 210 34
255 69 14 11 49 25 77 30 68 14 344 41 417 41 48 0 60 4 81 26 44 48 95 74
146 74 84 0 166 19 238 54 91 44 129 54 250 61 72 5 114 13 150 29 28 12 68
30 90 40 22 10 78 22 125 26 111 11 187 27 228 47 31 16 35 16 62 0 37 -22
101 -13 140 20 43 36 103 53 243 69 167 18 237 34 237 54 0 5 26 18 58 30 43
17 70 21 112 16 77 -7 134 3 162 29 52 48 112 64 353 95 66 8 109 21 163 47
53 25 87 35 118 35 73 -2 249 34 301 61 126 66 244 88 447 86 154 -3 140 -8
201 75 19 26 27 28 122 36 98 9 127 18 228 72 38 21 121 38 185 38 95 1 141
14 170 50 31 38 93 58 222 70 87 8 102 13 145 44 52 37 151 66 224 66 68 0
116 17 139 51 28 39 69 59 122 59 74 1 132 17 148 40 45 66 53 70 148 70 109
0 141 10 179 58 22 28 45 42 87 55 43 14 57 23 62 42 8 34 43 62 94 75 50 13
100 40 100 53 0 24 43 65 79 75 28 9 45 22 60 47 11 19 37 43 57 52 22 11 43
32 54 54 10 19 34 46 53 59 23 16 39 37 47 63 8 26 21 44 42 55 66 36 69 41
83 147 7 55 18 121 24 147 9 37 8 64 -5 125 -8 43 -19 127 -23 187 -7 99 -10
111 -32 127 -13 10 -36 27 -50 38 -14 11 -31 38 -38 61 -13 44 -86 123 -155
167 -21 14 -40 32 -43 42 -6 23 -27 35 -96 55 -39 11 -73 30 -100 56 -31 28
-60 43 -107 55 -79 20 -116 39 -130 65 -21 40 -61 50 -197 50 -70 1 -169 7
-219 14 -66 9 -140 10 -265 5 -248 -11 -574 -21 -639 -19 -110 3 -89 36 43 68
48 11 101 31 118 43 17 12 49 27 72 35 98 31 132 47 168 77 33 28 58 41 160
79 15 5 32 20 39 33 7 13 34 34 59 45 25 12 65 40 89 63 26 25 64 49 99 62 56
20 57 20 86 92 22 55 37 78 62 93 34 21 38 30 50 125 6 46 46 154 80 216 27
48 36 124 37 285 0 216 -3 236 -54 269 -24 16 -47 42 -58 68 -13 28 -29 47
-50 56 -17 7 -43 31 -57 52 -15 23 -37 42 -52 45 -65 15 -116 41 -149 76 -24
25 -47 39 -71 43 -96 16 -179 41 -254 77 l-82 40 -385 3 c-212 1 -401 -1 -420
-5z m-1280 -986 c37 -11 65 -31 80 -59 9 -16 28 -29 54 -37 23 -6 48 -19 58
-29 15 -17 30 -96 33 -179 1 -19 3 -42 3 -51 1 -9 18 -41 39 -70 51 -74 50
-113 -6 -203 -23 -37 -45 -85 -48 -105 -7 -47 -19 -60 -70 -82 -24 -10 -43
-25 -43 -33 0 -38 -24 -66 -64 -77 -70 -17 -96 -31 -116 -59 -29 -41 -74 -57
-183 -65 -90 -6 -101 -10 -141 -40 -68 -52 -82 -57 -200 -66 -102 -9 -115 -13
-163 -44 l-53 -35 -14 23 c-8 12 -19 49 -26 82 -7 33 -18 70 -26 83 -13 20
-13 25 1 44 24 36 18 66 -30 135 -42 60 -45 68 -45 131 -1 90 -12 133 -47 178
-42 55 -55 108 -73 298 -8 86 -7 104 8 128 19 33 34 36 193 41 106 3 118 5
150 29 53 41 83 49 229 63 136 13 454 12 500 -1z m1460 -1144 c0 -5 -7 -10
-16 -10 -8 0 -12 5 -9 10 3 6 10 10 16 10 5 0 9 -4 9 -10z m-1261 -1003 c31 0
77 8 103 17 42 17 49 17 99 1 30 -9 96 -19 148 -22 l93 -6 14 -36 c23 -59 29
-65 68 -74 43 -11 52 -25 60 -92 9 -85 17 -129 28 -164 7 -23 7 -50 -1 -90 -6
-31 -15 -90 -21 -131 -14 -101 -17 -108 -50 -125 -18 -9 -37 -33 -49 -60 -13
-29 -32 -52 -55 -66 -20 -12 -36 -25 -36 -29 0 -5 -12 -22 -26 -39 -20 -24
-34 -31 -62 -31 -61 0 -82 -11 -102 -50 -24 -47 -50 -56 -185 -65 -122 -8
-192 -27 -240 -65 -34 -27 -107 -50 -160 -50 -14 0 -48 -9 -77 -20 -28 -11
-62 -17 -74 -14 -34 9 -52 67 -64 211 -11 126 -24 193 -39 193 -19 0 -54 144
-68 280 -22 212 -20 205 -62 250 -69 74 -61 127 24 173 22 12 42 25 45 29 3 4
30 9 60 12 30 2 84 16 120 31 56 23 85 28 210 34 80 5 156 13 170 18 19 9 31
8 49 -4 13 -9 48 -15 80 -16z"/>
<path d="M14225 15190 c-66 -4 -140 -12 -165 -19 -25 -6 -59 -11 -76 -11 -47
0 -76 -38 -82 -105 -4 -48 0 -65 31 -128 42 -86 57 -137 57 -195 0 -49 21 -97
50 -112 13 -7 48 -6 119 4 89 12 108 19 173 59 44 28 91 49 118 53 40 6 54 16
127 93 91 94 109 134 99 210 -9 66 -35 103 -91 131 -57 28 -152 34 -360 20z"/>
<path d="M14725 13083 c-11 -2 -68 -15 -126 -27 -176 -39 -200 -61 -168 -155
11 -30 19 -77 19 -106 0 -28 11 -89 25 -135 14 -46 25 -92 25 -103 0 -32 60
-84 107 -91 46 -8 164 27 240 70 23 13 63 29 90 34 41 9 61 23 123 82 96 95
170 207 170 260 0 67 -37 117 -117 157 -38 19 -58 21 -205 20 -90 -1 -172 -3
-183 -6z"/>
<path d="M7899 14476 c-11 -11 -254 -26 -569 -36 -168 -5 -321 -12 -340 -15
-19 -3 -72 -24 -118 -47 -78 -40 -89 -42 -175 -44 -92 -1 -342 -19 -427 -31
-31 -4 -56 -15 -81 -38 -51 -46 -82 -53 -274 -58 -181 -6 -210 -12 -259 -55
-34 -29 -37 -30 -349 -63 -100 -11 -112 -15 -148 -44 -49 -42 -100 -53 -277
-64 -140 -9 -145 -10 -183 -41 -58 -46 -109 -60 -264 -71 -148 -11 -193 -23
-261 -75 -34 -27 -44 -28 -183 -36 -157 -8 -219 -20 -248 -48 -11 -9 -29 -22
-40 -29 -24 -12 -193 -36 -327 -46 -96 -7 -112 -12 -150 -49 -33 -34 -81 -46
-231 -56 -146 -11 -188 -20 -220 -50 -35 -33 -148 -60 -292 -69 -125 -8 -134
-11 -177 -41 -76 -52 -110 -61 -256 -70 -96 -5 -146 -13 -169 -25 -19 -9 -45
-19 -59 -21 -14 -3 -37 -13 -51 -23 -41 -28 -59 -32 -171 -41 -58 -5 -113 -11
-122 -15 -40 -16 -50 -127 -17 -190 62 -120 81 -187 88 -311 4 -78 12 -128 20
-138 27 -33 271 -8 315 33 12 10 39 24 61 31 22 7 46 17 52 22 23 18 224 35
347 28 l119 -6 40 -44 c53 -60 63 -88 71 -200 9 -132 24 -195 51 -228 33 -40
53 -128 65 -287 7 -106 14 -148 31 -182 21 -43 21 -47 5 -73 -9 -16 -16 -40
-16 -54 0 -15 -6 -42 -14 -61 -12 -27 -23 -36 -55 -45 -32 -8 -44 -18 -55 -44
-17 -40 -28 -48 -86 -61 -35 -8 -50 -18 -71 -50 -31 -45 -71 -63 -146 -64 -65
-1 -93 -12 -140 -54 -21 -19 -61 -46 -89 -60 -56 -28 -64 -40 -64 -96 0 -51
23 -81 58 -75 39 5 157 39 226 64 53 19 76 21 222 18 l164 -3 30 -37 c31 -37
101 -68 156 -68 27 0 51 -30 65 -82 5 -20 28 -70 51 -110 31 -55 43 -89 49
-143 9 -72 28 -286 29 -318 0 -10 17 -35 38 -55 33 -32 40 -47 50 -107 6 -39
14 -113 17 -165 9 -136 14 -161 41 -193 31 -36 38 -66 30 -122 -7 -47 -44 -88
-108 -121 -17 -9 -41 -25 -52 -36 -46 -44 -62 -48 -206 -57 -140 -9 -143 -10
-194 -44 -61 -41 -93 -52 -204 -68 -97 -13 -102 -19 -102 -111 0 -53 5 -72 28
-109 38 -60 82 -198 82 -256 0 -60 28 -129 58 -142 44 -21 90 -13 118 18 39
44 129 71 232 71 88 0 110 7 153 47 34 32 119 51 277 62 118 9 182 24 182 44
0 22 88 47 165 47 44 0 96 5 115 11 19 5 61 14 93 19 35 5 77 21 108 40 56 34
137 54 286 69 55 6 113 15 127 21 15 5 43 10 63 10 19 0 47 8 61 19 35 24 48
27 177 46 61 9 124 23 140 32 17 9 53 19 80 24 28 4 88 21 135 39 70 26 104
33 190 36 146 7 166 11 204 45 47 41 107 56 270 70 115 9 148 15 181 34 69 39
189 75 252 75 78 0 169 17 213 41 99 52 220 79 362 79 96 0 132 12 166 54 23
30 71 42 219 57 87 9 119 17 189 50 108 49 137 56 259 64 74 4 110 11 140 27
142 75 153 79 242 84 139 8 152 12 194 54 38 38 41 39 106 39 38 0 88 7 112
15 24 9 64 16 88 16 39 0 49 5 80 40 36 39 56 47 174 65 36 5 61 20 132 78 29
23 51 30 138 41 95 13 105 16 131 45 31 35 99 70 136 71 29 0 72 22 93 48 10
12 41 24 83 32 75 14 99 29 124 80 15 30 27 39 90 61 64 22 76 30 95 64 12 22
39 49 59 60 21 12 51 40 68 63 17 24 41 47 54 52 13 5 34 28 47 52 15 25 40
51 63 64 48 27 51 33 70 124 11 52 28 91 58 138 39 60 42 70 46 147 5 102 -11
155 -103 335 -7 14 -16 39 -20 57 -4 22 -18 39 -41 53 -20 13 -36 33 -40 48
-25 115 -66 159 -173 186 -38 9 -50 18 -66 48 -15 29 -28 39 -54 44 -58 11
-135 43 -144 60 -19 33 -48 54 -74 54 -52 0 -129 27 -290 102 -44 20 -121 20
-928 5 -124 -2 -130 -1 -133 19 -6 41 32 59 124 59 l83 0 43 41 c24 23 58 49
76 58 18 10 49 34 68 56 25 28 50 43 92 55 89 26 100 32 116 63 13 25 68 62
91 62 4 0 58 51 119 113 l112 112 18 80 c16 68 24 86 56 117 36 35 38 41 45
120 4 46 18 119 32 163 22 71 23 86 14 135 -6 30 -13 75 -16 100 -2 25 -14 90
-26 146 -20 95 -23 101 -54 118 -18 10 -41 33 -51 51 -10 20 -34 41 -61 54
-29 14 -49 32 -60 55 -19 40 -42 52 -133 65 -58 9 -69 15 -100 50 -46 53 -72
61 -194 62 -55 1 -119 6 -141 11 -22 5 -98 13 -170 19 -71 5 -161 12 -200 15
-38 3 -73 3 -76 0z m-1684 -975 c11 -5 54 -19 95 -32 89 -26 106 -39 122 -92
8 -27 24 -48 50 -66 47 -33 55 -68 62 -290 l5 -163 -45 -48 c-25 -27 -57 -72
-72 -102 -21 -41 -37 -58 -76 -78 -27 -15 -65 -45 -85 -68 -40 -46 -74 -62
-132 -62 -45 0 -84 -17 -114 -50 -39 -43 -71 -51 -224 -59 -136 -7 -153 -10
-215 -39 -103 -48 -127 -50 -164 -12 -38 37 -40 46 -45 172 -3 88 -5 100 -28
125 -53 58 -68 114 -80 296 -9 152 -18 185 -59 222 -34 31 -42 63 -35 141 9
90 14 99 62 96 25 -2 60 7 98 24 63 29 77 31 350 37 115 3 159 8 190 22 22 9
65 22 95 29 62 13 215 11 245 -3z m1725 -1100 c0 -10 -38 -18 -63 -13 -9 2
-15 8 -12 13 8 12 75 12 75 0z m-1139 -1006 c34 -12 50 -25 71 -59 22 -36 32
-44 66 -50 46 -7 72 -35 72 -76 0 -29 23 -66 57 -93 35 -28 45 -80 41 -208
l-3 -116 -42 -46 c-24 -26 -43 -55 -44 -64 -3 -75 -22 -107 -69 -116 -22 -5
-31 -15 -40 -44 -17 -53 -27 -62 -70 -69 -48 -8 -54 -12 -74 -52 -20 -39 -42
-48 -141 -61 -60 -7 -82 -15 -114 -40 -62 -49 -105 -62 -236 -71 -175 -13
-201 -20 -253 -75 -41 -42 -46 -44 -62 -30 -23 21 -54 120 -47 148 20 78 21
75 -22 123 -47 53 -48 57 -55 172 -4 82 -8 94 -77 234 -5 9 -17 79 -28 156
-12 77 -30 166 -42 197 -41 109 -9 138 149 139 102 1 109 2 154 32 52 34 106
48 258 65 58 6 110 12 115 14 6 2 96 4 201 4 145 1 201 -3 235 -14z"/>
<path d="M5810 13215 c-173 -53 -265 -91 -276 -114 -12 -23 -12 -27 20 -121 8
-25 19 -81 25 -125 5 -44 19 -107 31 -138 29 -78 47 -86 148 -62 42 10 109 22
147 27 94 13 116 23 167 70 24 22 57 47 73 55 104 53 150 186 110 319 -8 28
-26 61 -41 75 -25 23 -31 24 -192 26 -120 2 -180 -2 -212 -12z"/>
<path d="M6365 11099 c-22 -4 -80 -8 -130 -9 -101 -1 -164 -22 -186 -61 -15
-29 -14 -144 1 -184 7 -16 18 -52 25 -80 23 -85 80 -234 98 -255 20 -24 50
-25 106 -5 23 8 72 18 109 21 82 8 104 16 152 54 20 16 62 38 92 50 35 13 63
31 74 48 9 14 37 48 61 73 53 57 63 88 63 201 0 112 -16 134 -105 148 -71 12
-303 11 -360 -1z"/>
<path d="M5915 16241 c3 -35 5 -72 5 -81 0 -13 6 -16 25 -12 29 5 29 7 -11 99
l-25 58 6 -64z"/>
<path d="M21710 10807 c-104 -177 -325 -513 -444 -677 l-76 -105 77 -77 c70
-71 78 -76 109 -71 22 4 42 0 60 -11 29 -20 375 -343 447 -418 41 -43 47 -55
47 -91 0 -38 6 -47 72 -114 40 -40 78 -73 84 -73 10 0 117 146 266 360 151
219 442 696 435 714 -5 13 -356 270 -361 265 -2 -2 -53 -87 -114 -189 -62
-102 -119 -198 -129 -213 l-18 -28 52 -48 c28 -26 55 -59 58 -73 7 -28 -29
-112 -45 -106 -14 5 -179 142 -180 149 0 4 38 67 85 140 47 74 85 136 84 139
0 3 -42 37 -94 77 l-94 72 -57 -92 c-32 -51 -71 -111 -87 -135 l-28 -43 -51
43 c-28 24 -62 52 -76 64 -21 17 -23 23 -13 42 18 33 57 55 85 48 14 -3 38
-17 54 -31 l31 -26 79 128 c101 163 175 293 171 298 -5 4 -267 196 -304 221
l-30 21 -95 -160z"/>
<path d="M20860 9619 c-52 -62 -139 -162 -192 -221 -54 -59 -98 -111 -98 -116
0 -5 44 -106 98 -223 101 -219 114 -249 108 -249 -2 0 -90 65 -196 145 l-193
146 -116 -113 c-64 -63 -161 -155 -216 -205 l-100 -91 64 -95 c59 -87 67 -95
91 -90 21 4 32 -2 57 -30 43 -49 381 -540 393 -571 6 -17 6 -36 -1 -55 -10
-28 -6 -37 52 -121 34 -49 66 -90 70 -90 9 0 79 62 256 228 l132 123 -67 90
c-62 82 -69 89 -99 87 -20 -1 -40 5 -54 17 -29 27 -206 260 -188 249 8 -4 41
-29 74 -54 70 -55 134 -98 306 -208 l126 -80 71 71 71 72 -98 240 c-54 132
-112 268 -129 303 -18 34 -30 62 -28 62 7 0 193 -224 205 -248 7 -12 9 -37 6
-55 -5 -29 1 -40 62 -114 37 -45 73 -80 78 -79 11 3 289 316 367 414 l50 62
-73 81 c-65 72 -75 79 -100 74 -16 -4 -37 -4 -48 0 -20 6 -450 455 -484 504
-12 17 -16 36 -12 58 5 28 -2 39 -72 113 l-78 82 -95 -113z"/>
<path d="M19525 8310 c-62 -13 -147 -54 -243 -116 -188 -122 -298 -237 -344
-357 -24 -60 -27 -158 -8 -227 17 -61 275 -613 316 -675 96 -146 264 -166 479
-57 219 110 419 295 477 442 33 82 31 206 -3 280 -33 70 -327 543 -379 609
-66 84 -186 125 -295 101z m-69 -378 c21 -14 344 -604 344 -629 0 -15 -14 -39
-34 -59 -39 -39 -90 -46 -124 -16 -28 23 -302 542 -309 585 -7 45 17 90 59
110 37 18 48 20 64 9z"/>
<path d="M10912 7914 c-38 -75 -50 -110 -43 -117 28 -28 9 -81 -135 -370 -80
-160 -157 -307 -171 -324 -17 -24 -32 -33 -53 -33 -26 0 -33 -9 -80 -96 -28
-52 -49 -101 -47 -107 5 -13 266 -177 457 -288 190 -109 352 -185 426 -199
152 -29 271 27 338 157 34 67 229 621 239 680 19 108 -15 220 -90 303 -51 58
-107 96 -305 209 -179 102 -359 210 -435 262 -23 16 -43 29 -45 29 -2 0 -27
-48 -56 -106z m416 -448 c44 -23 75 -63 74 -95 -1 -32 -187 -487 -228 -558
-21 -37 -30 -43 -57 -43 -32 0 -110 38 -110 53 1 11 286 657 290 657 2 0 16
-6 31 -14z"/>
<path d="M18265 7583 c-126 -63 -231 -116 -233 -117 -1 -2 9 -34 23 -72 14
-38 32 -88 41 -111 10 -29 22 -43 34 -43 9 0 22 -6 28 -13 10 -12 82 -202 82
-217 0 -7 -133 -70 -148 -70 -14 0 -74 201 -69 229 3 14 7 33 9 41 4 22 -64
220 -77 220 -5 0 -62 -22 -125 -49 -63 -26 -167 -68 -230 -91 -63 -24 -116
-45 -118 -46 -2 -1 11 -54 29 -117 28 -100 35 -116 55 -121 13 -4 30 -16 38
-29 16 -26 196 -640 203 -696 4 -27 0 -46 -12 -65 -17 -26 -17 -30 11 -133 16
-58 34 -107 40 -110 14 -5 522 194 543 212 1 2 -13 53 -33 113 -32 94 -41 111
-61 116 -31 8 -39 23 -85 162 l-38 113 64 30 c101 47 93 52 143 -87 41 -115
44 -126 32 -159 -12 -32 -10 -44 20 -135 19 -55 40 -103 47 -105 12 -5 476
219 515 249 17 13 16 19 -27 118 -38 91 -48 105 -70 108 -14 2 -34 14 -44 27
-25 31 -272 626 -279 672 -3 19 0 44 6 57 11 20 7 36 -29 122 -23 54 -45 102
-48 105 -4 4 -110 -45 -237 -108z"/>
<path d="M12376 7195 c-74 -30 -119 -73 -157 -150 -26 -55 -161 -466 -210
-644 -27 -96 -23 -196 10 -264 30 -62 117 -156 182 -197 140 -91 402 -171 554
-172 179 0 281 63 338 208 16 42 131 625 143 724 13 113 -45 247 -138 322 -62
51 -120 81 -230 122 -217 80 -380 97 -492 51z m368 -319 c71 -30 72 -18 -21
-403 -46 -191 -89 -353 -95 -360 -16 -19 -78 -16 -114 6 -57 35 -60 68 -19
227 107 417 128 488 156 517 31 31 46 33 93 13z"/>
<path d="M16395 6925 c-33 -8 -123 -24 -200 -36 -77 -12 -144 -25 -148 -29 -4
-4 -2 -58 5 -120 11 -101 15 -113 35 -123 12 -5 27 -24 32 -41 12 -36 43 -268
37 -274 -6 -6 -121 201 -224 403 -76 149 -54 137 -217 121 -77 -8 -179 -17
-227 -21 l-87 -7 6 -116 c6 -112 8 -118 35 -144 15 -14 28 -32 28 -40 0 -7 7
-139 15 -293 8 -154 15 -321 15 -372 0 -86 -2 -93 -25 -111 -28 -22 -31 -60
-18 -195 l6 -69 86 7 c148 11 395 36 399 40 2 2 -1 54 -6 116 -10 103 -13 114
-37 133 -15 13 -30 37 -35 61 -13 62 -24 242 -13 230 5 -5 71 -113 146 -240
76 -126 146 -240 155 -253 l18 -23 208 36 c244 41 246 41 246 64 0 10 -34 233
-75 497 -41 263 -75 491 -75 505 0 15 9 38 20 52 20 25 20 29 5 119 -21 130
-24 138 -38 137 -6 -1 -39 -7 -72 -14z"/>
<path d="M13555 6817 c-17 -111 -17 -113 4 -152 17 -34 22 -71 31 -250 11
-220 37 -628 48 -768 l7 -82 100 -17 c179 -30 366 -51 375 -42 10 11 104 315
140 454 l27 105 7 -60 c29 -246 65 -527 68 -530 4 -4 379 -25 440 -25 l45 0
53 238 c29 130 78 365 110 520 42 209 63 291 79 312 19 26 21 43 21 150 l0
120 -162 0 c-90 0 -193 3 -229 6 l-67 7 -7 -122 c-7 -118 -6 -123 14 -137 16
-12 21 -26 21 -62 0 -35 -35 -258 -51 -331 -2 -9 -11 47 -58 344 -23 149 -44
279 -46 291 -4 19 -16 22 -146 33 -78 7 -145 9 -149 4 -3 -4 -34 -105 -68
-223 -34 -118 -75 -258 -91 -310 l-28 -94 -7 99 c-3 55 -7 140 -8 189 -1 84 0
90 24 110 22 19 27 33 37 124 6 56 11 109 11 116 0 9 -35 19 -117 31 -65 9
-176 28 -248 41 -71 13 -137 24 -146 24 -14 0 -20 -22 -34 -113z"/>
<path d="M10513 6275 c-25 -21 -26 -24 -10 -30 28 -11 67 3 67 24 0 30 -27 33
-57 6z"/>
</g>
</svg>
